<mxfile host="Electron" modified="2023-08-30T17:54:55.293Z" agent="Mozilla/5.0 (Windows NT 10.0; Win64; x64) AppleWebKit/537.36 (KHTML, like Gecko) draw.io/21.2.1 Chrome/112.0.5615.87 Electron/24.1.2 Safari/537.36" etag="wSZywNjmAemELXCntGsq" version="21.2.1" type="device">
  <diagram id="C5RBs43oDa-KdzZeNtuy" name="Page-1">
    <mxGraphModel dx="2014" dy="2307" grid="1" gridSize="10" guides="1" tooltips="1" connect="1" arrows="1" fold="1" page="1" pageScale="1" pageWidth="827" pageHeight="1169" math="0" shadow="0">
      <root>
        <mxCell id="WIyWlLk6GJQsqaUBKTNV-0" />
        <mxCell id="WIyWlLk6GJQsqaUBKTNV-1" parent="WIyWlLk6GJQsqaUBKTNV-0" />
        <mxCell id="HzdkbjWVnRiLDoLoKct_-272" value="Map" style="rounded=0;whiteSpace=wrap;html=1;align=left;verticalAlign=top;fillColor=#76608a;strokeColor=#432D57;fontColor=#ffffff;" parent="WIyWlLk6GJQsqaUBKTNV-1" vertex="1">
          <mxGeometry x="-390" y="-402" width="460" height="160" as="geometry" />
        </mxCell>
        <mxCell id="HzdkbjWVnRiLDoLoKct_-9" value="World" style="swimlane;fontStyle=1;align=center;verticalAlign=top;childLayout=stackLayout;horizontal=1;startSize=26;horizontalStack=0;resizeParent=1;resizeParentMax=0;resizeLast=0;collapsible=1;marginBottom=0;whiteSpace=wrap;html=1;strokeColor=#60a917;" parent="WIyWlLk6GJQsqaUBKTNV-1" vertex="1">
          <mxGeometry x="317.5" y="-140" width="160" height="372" as="geometry">
            <mxRectangle x="270" y="80" width="130" height="40" as="alternateBounds" />
          </mxGeometry>
        </mxCell>
        <mxCell id="HzdkbjWVnRiLDoLoKct_-10" value="+ ctx" style="text;strokeColor=#2D7600;fillColor=#60a917;align=left;verticalAlign=top;spacingLeft=4;spacingRight=4;overflow=hidden;rotatable=0;points=[[0,0.5],[1,0.5]];portConstraint=eastwest;whiteSpace=wrap;html=1;fontColor=#ffffff;" parent="HzdkbjWVnRiLDoLoKct_-9" vertex="1">
          <mxGeometry y="26" width="160" height="26" as="geometry" />
        </mxCell>
        <mxCell id="HzdkbjWVnRiLDoLoKct_-95" value="+ canvas" style="text;strokeColor=#2D7600;fillColor=#60a917;align=left;verticalAlign=top;spacingLeft=4;spacingRight=4;overflow=hidden;rotatable=0;points=[[0,0.5],[1,0.5]];portConstraint=eastwest;whiteSpace=wrap;html=1;fontColor=#ffffff;" parent="HzdkbjWVnRiLDoLoKct_-9" vertex="1">
          <mxGeometry y="52" width="160" height="26" as="geometry" />
        </mxCell>
        <mxCell id="HzdkbjWVnRiLDoLoKct_-96" value="+ level" style="text;strokeColor=#2D7600;fillColor=#60a917;align=left;verticalAlign=top;spacingLeft=4;spacingRight=4;overflow=hidden;rotatable=0;points=[[0,0.5],[1,0.5]];portConstraint=eastwest;whiteSpace=wrap;html=1;fontColor=#ffffff;" parent="HzdkbjWVnRiLDoLoKct_-9" vertex="1">
          <mxGeometry y="78" width="160" height="26" as="geometry" />
        </mxCell>
        <mxCell id="9fKX-wjSNF27q1v6EJUF-25" value="+ character" style="text;strokeColor=#2D7600;fillColor=#60a917;align=left;verticalAlign=top;spacingLeft=4;spacingRight=4;overflow=hidden;rotatable=0;points=[[0,0.5],[1,0.5]];portConstraint=eastwest;whiteSpace=wrap;html=1;fontColor=#ffffff;" parent="HzdkbjWVnRiLDoLoKct_-9" vertex="1">
          <mxGeometry y="104" width="160" height="26" as="geometry" />
        </mxCell>
        <mxCell id="9fKX-wjSNF27q1v6EJUF-50" value="+ bubbles" style="text;strokeColor=#2D7600;fillColor=#60a917;align=left;verticalAlign=top;spacingLeft=4;spacingRight=4;overflow=hidden;rotatable=0;points=[[0,0.5],[1,0.5]];portConstraint=eastwest;whiteSpace=wrap;html=1;fontColor=#ffffff;" parent="HzdkbjWVnRiLDoLoKct_-9" vertex="1">
          <mxGeometry y="130" width="160" height="26" as="geometry" />
        </mxCell>
        <mxCell id="9fKX-wjSNF27q1v6EJUF-26" value="+ keyListener" style="text;strokeColor=#2D7600;fillColor=#60a917;align=left;verticalAlign=top;spacingLeft=4;spacingRight=4;overflow=hidden;rotatable=0;points=[[0,0.5],[1,0.5]];portConstraint=eastwest;whiteSpace=wrap;html=1;fontColor=#ffffff;" parent="HzdkbjWVnRiLDoLoKct_-9" vertex="1">
          <mxGeometry y="156" width="160" height="26" as="geometry" />
        </mxCell>
        <mxCell id="HzdkbjWVnRiLDoLoKct_-111" value="+ cameraOffset" style="text;strokeColor=#2D7600;fillColor=#60a917;align=left;verticalAlign=top;spacingLeft=4;spacingRight=4;overflow=hidden;rotatable=0;points=[[0,0.5],[1,0.5]];portConstraint=eastwest;whiteSpace=wrap;html=1;fontColor=#ffffff;" parent="HzdkbjWVnRiLDoLoKct_-9" vertex="1">
          <mxGeometry y="182" width="160" height="26" as="geometry" />
        </mxCell>
        <mxCell id="HzdkbjWVnRiLDoLoKct_-11" value="" style="line;strokeWidth=1;fillColor=none;align=left;verticalAlign=middle;spacingTop=-1;spacingLeft=3;spacingRight=3;rotatable=0;labelPosition=right;points=[];portConstraint=eastwest;strokeColor=inherit;" parent="HzdkbjWVnRiLDoLoKct_-9" vertex="1">
          <mxGeometry y="208" width="160" height="8" as="geometry" />
        </mxCell>
        <mxCell id="HzdkbjWVnRiLDoLoKct_-12" value="&lt;div&gt;+ constructor(cava,keybrd)&lt;/div&gt;" style="text;strokeColor=#2D7600;fillColor=#60a917;align=left;verticalAlign=top;spacingLeft=4;spacingRight=4;overflow=hidden;rotatable=0;points=[[0,0.5],[1,0.5]];portConstraint=eastwest;whiteSpace=wrap;html=1;fontColor=#ffffff;" parent="HzdkbjWVnRiLDoLoKct_-9" vertex="1">
          <mxGeometry y="216" width="160" height="26" as="geometry" />
        </mxCell>
        <mxCell id="HzdkbjWVnRiLDoLoKct_-98" value="&lt;div&gt;+ add2Map(Obj)&lt;br&gt;&lt;/div&gt;" style="text;strokeColor=#2D7600;fillColor=#60a917;align=left;verticalAlign=top;spacingLeft=4;spacingRight=4;overflow=hidden;rotatable=0;points=[[0,0.5],[1,0.5]];portConstraint=eastwest;whiteSpace=wrap;html=1;fontColor=#ffffff;" parent="HzdkbjWVnRiLDoLoKct_-9" vertex="1">
          <mxGeometry y="242" width="160" height="26" as="geometry" />
        </mxCell>
        <mxCell id="HzdkbjWVnRiLDoLoKct_-97" value="&lt;div&gt;+ drawMap()&lt;/div&gt;" style="text;strokeColor=#2D7600;fillColor=#60a917;align=left;verticalAlign=top;spacingLeft=4;spacingRight=4;overflow=hidden;rotatable=0;points=[[0,0.5],[1,0.5]];portConstraint=eastwest;whiteSpace=wrap;html=1;fontColor=#ffffff;" parent="HzdkbjWVnRiLDoLoKct_-9" vertex="1">
          <mxGeometry y="268" width="160" height="26" as="geometry" />
        </mxCell>
        <mxCell id="9fKX-wjSNF27q1v6EJUF-51" value="&lt;div&gt;+ run()&lt;/div&gt;" style="text;strokeColor=#2D7600;fillColor=#60a917;align=left;verticalAlign=top;spacingLeft=4;spacingRight=4;overflow=hidden;rotatable=0;points=[[0,0.5],[1,0.5]];portConstraint=eastwest;whiteSpace=wrap;html=1;fontColor=#ffffff;" parent="HzdkbjWVnRiLDoLoKct_-9" vertex="1">
          <mxGeometry y="294" width="160" height="26" as="geometry" />
        </mxCell>
        <mxCell id="HzdkbjWVnRiLDoLoKct_-265" value="&lt;div&gt;+ removeBubbles()&lt;/div&gt;" style="text;strokeColor=#2D7600;fillColor=#60a917;align=left;verticalAlign=top;spacingLeft=4;spacingRight=4;overflow=hidden;rotatable=0;points=[[0,0.5],[1,0.5]];portConstraint=eastwest;whiteSpace=wrap;html=1;fontColor=#ffffff;" parent="HzdkbjWVnRiLDoLoKct_-9" vertex="1">
          <mxGeometry y="320" width="160" height="26" as="geometry" />
        </mxCell>
        <mxCell id="HzdkbjWVnRiLDoLoKct_-225" value="&lt;div&gt;+ checkCollisions()&lt;/div&gt;" style="text;strokeColor=none;fillColor=none;align=left;verticalAlign=top;spacingLeft=4;spacingRight=4;overflow=hidden;rotatable=0;points=[[0,0.5],[1,0.5]];portConstraint=eastwest;whiteSpace=wrap;html=1;" parent="HzdkbjWVnRiLDoLoKct_-9" vertex="1">
          <mxGeometry y="346" width="160" height="26" as="geometry" />
        </mxCell>
        <mxCell id="HzdkbjWVnRiLDoLoKct_-183" style="edgeStyle=orthogonalEdgeStyle;rounded=0;orthogonalLoop=1;jettySize=auto;html=1;exitX=0.5;exitY=1;exitDx=0;exitDy=0;entryX=0.5;entryY=0;entryDx=0;entryDy=0;" parent="WIyWlLk6GJQsqaUBKTNV-1" source="HzdkbjWVnRiLDoLoKct_-17" target="HzdkbjWVnRiLDoLoKct_-29" edge="1">
          <mxGeometry relative="1" as="geometry">
            <Array as="points">
              <mxPoint x="190" y="270" />
              <mxPoint x="871" y="270" />
            </Array>
          </mxGeometry>
        </mxCell>
        <mxCell id="HzdkbjWVnRiLDoLoKct_-17" value="DrawableObject" style="swimlane;fontStyle=1;align=center;verticalAlign=top;childLayout=stackLayout;horizontal=1;startSize=26;horizontalStack=0;resizeParent=1;resizeParentMax=0;resizeLast=0;collapsible=1;marginBottom=0;whiteSpace=wrap;html=1;strokeColor=#60a917;" parent="WIyWlLk6GJQsqaUBKTNV-1" vertex="1">
          <mxGeometry x="110" y="-139" width="160" height="372" as="geometry">
            <mxRectangle x="110" y="-43" width="130" height="40" as="alternateBounds" />
          </mxGeometry>
        </mxCell>
        <mxCell id="HzdkbjWVnRiLDoLoKct_-18" value="&lt;div&gt;+ x&lt;/div&gt;" style="text;strokeColor=#2D7600;fillColor=#60a917;align=left;verticalAlign=top;spacingLeft=4;spacingRight=4;overflow=hidden;rotatable=0;points=[[0,0.5],[1,0.5]];portConstraint=eastwest;whiteSpace=wrap;html=1;fontColor=#ffffff;" parent="HzdkbjWVnRiLDoLoKct_-17" vertex="1">
          <mxGeometry y="26" width="160" height="26" as="geometry" />
        </mxCell>
        <mxCell id="HzdkbjWVnRiLDoLoKct_-81" value="&lt;div&gt;+ y&lt;br&gt;&lt;/div&gt;" style="text;strokeColor=#2D7600;fillColor=#60a917;align=left;verticalAlign=top;spacingLeft=4;spacingRight=4;overflow=hidden;rotatable=0;points=[[0,0.5],[1,0.5]];portConstraint=eastwest;whiteSpace=wrap;html=1;fontColor=#ffffff;" parent="HzdkbjWVnRiLDoLoKct_-17" vertex="1">
          <mxGeometry y="52" width="160" height="26" as="geometry" />
        </mxCell>
        <mxCell id="HzdkbjWVnRiLDoLoKct_-82" value="&lt;div&gt;+ width&lt;br&gt;&lt;/div&gt;" style="text;strokeColor=#2D7600;fillColor=#60a917;align=left;verticalAlign=top;spacingLeft=4;spacingRight=4;overflow=hidden;rotatable=0;points=[[0,0.5],[1,0.5]];portConstraint=eastwest;whiteSpace=wrap;html=1;fontColor=#ffffff;" parent="HzdkbjWVnRiLDoLoKct_-17" vertex="1">
          <mxGeometry y="78" width="160" height="26" as="geometry" />
        </mxCell>
        <mxCell id="HzdkbjWVnRiLDoLoKct_-83" value="&lt;div&gt;+ hight&lt;br&gt;&lt;/div&gt;" style="text;strokeColor=#2D7600;fillColor=#60a917;align=left;verticalAlign=top;spacingLeft=4;spacingRight=4;overflow=hidden;rotatable=0;points=[[0,0.5],[1,0.5]];portConstraint=eastwest;whiteSpace=wrap;html=1;fontColor=#ffffff;" parent="HzdkbjWVnRiLDoLoKct_-17" vertex="1">
          <mxGeometry y="104" width="160" height="26" as="geometry" />
        </mxCell>
        <mxCell id="BhJBI_x_kJEaHvdFS2TZ-22" value="&lt;div&gt;+ center&lt;br&gt;&lt;/div&gt;" style="text;strokeColor=#2D7600;fillColor=#60a917;align=left;verticalAlign=top;spacingLeft=4;spacingRight=4;overflow=hidden;rotatable=0;points=[[0,0.5],[1,0.5]];portConstraint=eastwest;whiteSpace=wrap;html=1;fontColor=#ffffff;" parent="HzdkbjWVnRiLDoLoKct_-17" vertex="1">
          <mxGeometry y="130" width="160" height="26" as="geometry" />
        </mxCell>
        <mxCell id="HzdkbjWVnRiLDoLoKct_-85" value="&lt;div&gt;+ img&lt;br&gt;&lt;/div&gt;" style="text;strokeColor=#2D7600;fillColor=#60a917;align=left;verticalAlign=top;spacingLeft=4;spacingRight=4;overflow=hidden;rotatable=0;points=[[0,0.5],[1,0.5]];portConstraint=eastwest;whiteSpace=wrap;html=1;fontColor=#ffffff;" parent="HzdkbjWVnRiLDoLoKct_-17" vertex="1">
          <mxGeometry y="156" width="160" height="26" as="geometry" />
        </mxCell>
        <mxCell id="HzdkbjWVnRiLDoLoKct_-86" value="&lt;div&gt;+ direction&lt;br&gt;&lt;/div&gt;" style="text;strokeColor=#2D7600;fillColor=#60a917;align=left;verticalAlign=top;spacingLeft=4;spacingRight=4;overflow=hidden;rotatable=0;points=[[0,0.5],[1,0.5]];portConstraint=eastwest;whiteSpace=wrap;html=1;fontColor=#ffffff;" parent="HzdkbjWVnRiLDoLoKct_-17" vertex="1">
          <mxGeometry y="182" width="160" height="26" as="geometry" />
        </mxCell>
        <mxCell id="HzdkbjWVnRiLDoLoKct_-19" value="" style="line;strokeWidth=1;fillColor=none;align=left;verticalAlign=middle;spacingTop=-1;spacingLeft=3;spacingRight=3;rotatable=0;labelPosition=right;points=[];portConstraint=eastwest;strokeColor=inherit;" parent="HzdkbjWVnRiLDoLoKct_-17" vertex="1">
          <mxGeometry y="208" width="160" height="8" as="geometry" />
        </mxCell>
        <mxCell id="HzdkbjWVnRiLDoLoKct_-91" value="+ constructor()" style="text;strokeColor=#2D7600;fillColor=#60a917;align=left;verticalAlign=top;spacingLeft=4;spacingRight=4;overflow=hidden;rotatable=0;points=[[0,0.5],[1,0.5]];portConstraint=eastwest;whiteSpace=wrap;html=1;fontColor=#ffffff;" parent="HzdkbjWVnRiLDoLoKct_-17" vertex="1">
          <mxGeometry y="216" width="160" height="26" as="geometry" />
        </mxCell>
        <mxCell id="HzdkbjWVnRiLDoLoKct_-20" value="+ draw()" style="text;strokeColor=#2D7600;fillColor=#60a917;align=left;verticalAlign=top;spacingLeft=4;spacingRight=4;overflow=hidden;rotatable=0;points=[[0,0.5],[1,0.5]];portConstraint=eastwest;whiteSpace=wrap;html=1;fontColor=#ffffff;" parent="HzdkbjWVnRiLDoLoKct_-17" vertex="1">
          <mxGeometry y="242" width="160" height="26" as="geometry" />
        </mxCell>
        <mxCell id="HzdkbjWVnRiLDoLoKct_-84" value="+ drawFrame()" style="text;strokeColor=#2D7600;fillColor=#60a917;align=left;verticalAlign=top;spacingLeft=4;spacingRight=4;overflow=hidden;rotatable=0;points=[[0,0.5],[1,0.5]];portConstraint=eastwest;whiteSpace=wrap;html=1;fontColor=#ffffff;" parent="HzdkbjWVnRiLDoLoKct_-17" vertex="1">
          <mxGeometry y="268" width="160" height="26" as="geometry" />
        </mxCell>
        <mxCell id="9fKX-wjSNF27q1v6EJUF-12" value="+ loadImg()" style="text;strokeColor=#2D7600;fillColor=#60a917;align=left;verticalAlign=top;spacingLeft=4;spacingRight=4;overflow=hidden;rotatable=0;points=[[0,0.5],[1,0.5]];portConstraint=eastwest;whiteSpace=wrap;html=1;fontColor=#ffffff;" parent="HzdkbjWVnRiLDoLoKct_-17" vertex="1">
          <mxGeometry y="294" width="160" height="26" as="geometry" />
        </mxCell>
        <mxCell id="9fKX-wjSNF27q1v6EJUF-13" value="+ isNotVisible()" style="text;strokeColor=#2D7600;fillColor=#60a917;align=left;verticalAlign=top;spacingLeft=4;spacingRight=4;overflow=hidden;rotatable=0;points=[[0,0.5],[1,0.5]];portConstraint=eastwest;whiteSpace=wrap;html=1;fontColor=#ffffff;" parent="HzdkbjWVnRiLDoLoKct_-17" vertex="1">
          <mxGeometry y="320" width="160" height="26" as="geometry" />
        </mxCell>
        <mxCell id="9fKX-wjSNF27q1v6EJUF-42" value="+ flipImg()" style="text;strokeColor=#2D7600;fillColor=#60a917;align=left;verticalAlign=top;spacingLeft=4;spacingRight=4;overflow=hidden;rotatable=0;points=[[0,0.5],[1,0.5]];portConstraint=eastwest;whiteSpace=wrap;html=1;fontColor=#ffffff;" parent="HzdkbjWVnRiLDoLoKct_-17" vertex="1">
          <mxGeometry y="346" width="160" height="26" as="geometry" />
        </mxCell>
        <mxCell id="HzdkbjWVnRiLDoLoKct_-21" value="KeyListener" style="swimlane;fontStyle=1;align=center;verticalAlign=top;childLayout=stackLayout;horizontal=1;startSize=26;horizontalStack=0;resizeParent=1;resizeParentMax=0;resizeLast=0;collapsible=1;marginBottom=0;whiteSpace=wrap;html=1;strokeColor=#60a917;" parent="WIyWlLk6GJQsqaUBKTNV-1" vertex="1">
          <mxGeometry x="590" y="-92" width="160" height="190" as="geometry">
            <mxRectangle x="510" y="130" width="130" height="40" as="alternateBounds" />
          </mxGeometry>
        </mxCell>
        <mxCell id="HzdkbjWVnRiLDoLoKct_-22" value="+ KeyLeft" style="text;strokeColor=#2D7600;fillColor=#60a917;align=left;verticalAlign=top;spacingLeft=4;spacingRight=4;overflow=hidden;rotatable=0;points=[[0,0.5],[1,0.5]];portConstraint=eastwest;whiteSpace=wrap;html=1;fontColor=#ffffff;" parent="HzdkbjWVnRiLDoLoKct_-21" vertex="1">
          <mxGeometry y="26" width="160" height="26" as="geometry" />
        </mxCell>
        <mxCell id="HzdkbjWVnRiLDoLoKct_-87" value="+ KeyRight" style="text;strokeColor=#2D7600;fillColor=#60a917;align=left;verticalAlign=top;spacingLeft=4;spacingRight=4;overflow=hidden;rotatable=0;points=[[0,0.5],[1,0.5]];portConstraint=eastwest;whiteSpace=wrap;html=1;fontColor=#ffffff;" parent="HzdkbjWVnRiLDoLoKct_-21" vertex="1">
          <mxGeometry y="52" width="160" height="26" as="geometry" />
        </mxCell>
        <mxCell id="HzdkbjWVnRiLDoLoKct_-88" value="+ KeyUp" style="text;strokeColor=#2D7600;fillColor=#60a917;align=left;verticalAlign=top;spacingLeft=4;spacingRight=4;overflow=hidden;rotatable=0;points=[[0,0.5],[1,0.5]];portConstraint=eastwest;whiteSpace=wrap;html=1;fontColor=#ffffff;" parent="HzdkbjWVnRiLDoLoKct_-21" vertex="1">
          <mxGeometry y="78" width="160" height="26" as="geometry" />
        </mxCell>
        <mxCell id="HzdkbjWVnRiLDoLoKct_-89" value="+ KeyDown" style="text;strokeColor=#2D7600;fillColor=#60a917;align=left;verticalAlign=top;spacingLeft=4;spacingRight=4;overflow=hidden;rotatable=0;points=[[0,0.5],[1,0.5]];portConstraint=eastwest;whiteSpace=wrap;html=1;fontColor=#ffffff;" parent="HzdkbjWVnRiLDoLoKct_-21" vertex="1">
          <mxGeometry y="104" width="160" height="26" as="geometry" />
        </mxCell>
        <mxCell id="HzdkbjWVnRiLDoLoKct_-90" value="+ KeySpace" style="text;strokeColor=#2D7600;fillColor=#60a917;align=left;verticalAlign=top;spacingLeft=4;spacingRight=4;overflow=hidden;rotatable=0;points=[[0,0.5],[1,0.5]];portConstraint=eastwest;whiteSpace=wrap;html=1;fontColor=#ffffff;" parent="HzdkbjWVnRiLDoLoKct_-21" vertex="1">
          <mxGeometry y="130" width="160" height="26" as="geometry" />
        </mxCell>
        <mxCell id="HzdkbjWVnRiLDoLoKct_-23" value="" style="line;strokeWidth=1;fillColor=none;align=left;verticalAlign=middle;spacingTop=-1;spacingLeft=3;spacingRight=3;rotatable=0;labelPosition=right;points=[];portConstraint=eastwest;strokeColor=inherit;" parent="HzdkbjWVnRiLDoLoKct_-21" vertex="1">
          <mxGeometry y="156" width="160" height="8" as="geometry" />
        </mxCell>
        <mxCell id="HzdkbjWVnRiLDoLoKct_-24" value="+ constructor()" style="text;strokeColor=none;fillColor=none;align=left;verticalAlign=top;spacingLeft=4;spacingRight=4;overflow=hidden;rotatable=0;points=[[0,0.5],[1,0.5]];portConstraint=eastwest;whiteSpace=wrap;html=1;" parent="HzdkbjWVnRiLDoLoKct_-21" vertex="1">
          <mxGeometry y="164" width="160" height="26" as="geometry" />
        </mxCell>
        <mxCell id="vhZRwU5GHjn1_qx9XKm6-17" style="edgeStyle=orthogonalEdgeStyle;rounded=0;orthogonalLoop=1;jettySize=auto;html=1;exitX=0.5;exitY=0;exitDx=0;exitDy=0;entryX=0.5;entryY=1.038;entryDx=0;entryDy=0;entryPerimeter=0;endArrow=none;endFill=0;startArrow=classic;startFill=1;" parent="WIyWlLk6GJQsqaUBKTNV-1" source="HzdkbjWVnRiLDoLoKct_-25" target="vhZRwU5GHjn1_qx9XKm6-8" edge="1">
          <mxGeometry relative="1" as="geometry" />
        </mxCell>
        <mxCell id="HzdkbjWVnRiLDoLoKct_-25" value="MoveableObject" style="swimlane;fontStyle=1;align=center;verticalAlign=top;childLayout=stackLayout;horizontal=1;startSize=26;horizontalStack=0;resizeParent=1;resizeParentMax=0;resizeLast=0;collapsible=1;marginBottom=0;whiteSpace=wrap;html=1;strokeColor=#00e55a;" parent="WIyWlLk6GJQsqaUBKTNV-1" vertex="1">
          <mxGeometry x="110" y="550" width="160" height="216" as="geometry">
            <mxRectangle x="111" y="310" width="130" height="40" as="alternateBounds" />
          </mxGeometry>
        </mxCell>
        <mxCell id="HzdkbjWVnRiLDoLoKct_-26" value="+ speedX" style="text;strokeColor=#2D7600;fillColor=#60a917;align=left;verticalAlign=top;spacingLeft=4;spacingRight=4;overflow=hidden;rotatable=0;points=[[0,0.5],[1,0.5]];portConstraint=eastwest;whiteSpace=wrap;html=1;fontColor=#ffffff;" parent="HzdkbjWVnRiLDoLoKct_-25" vertex="1">
          <mxGeometry y="26" width="160" height="26" as="geometry" />
        </mxCell>
        <mxCell id="HzdkbjWVnRiLDoLoKct_-130" value="+ speedY" style="text;strokeColor=#2D7600;fillColor=#60a917;align=left;verticalAlign=top;spacingLeft=4;spacingRight=4;overflow=hidden;rotatable=0;points=[[0,0.5],[1,0.5]];portConstraint=eastwest;whiteSpace=wrap;html=1;fontColor=#ffffff;" parent="HzdkbjWVnRiLDoLoKct_-25" vertex="1">
          <mxGeometry y="52" width="160" height="26" as="geometry" />
        </mxCell>
        <mxCell id="HzdkbjWVnRiLDoLoKct_-27" value="" style="line;strokeWidth=1;fillColor=none;align=left;verticalAlign=middle;spacingTop=-1;spacingLeft=3;spacingRight=3;rotatable=0;labelPosition=right;points=[];portConstraint=eastwest;strokeColor=inherit;" parent="HzdkbjWVnRiLDoLoKct_-25" vertex="1">
          <mxGeometry y="78" width="160" height="8" as="geometry" />
        </mxCell>
        <mxCell id="HzdkbjWVnRiLDoLoKct_-28" value="+ constructor()" style="text;strokeColor=#2D7600;fillColor=#60a917;align=left;verticalAlign=top;spacingLeft=4;spacingRight=4;overflow=hidden;rotatable=0;points=[[0,0.5],[1,0.5]];portConstraint=eastwest;whiteSpace=wrap;html=1;fontColor=#ffffff;" parent="HzdkbjWVnRiLDoLoKct_-25" vertex="1">
          <mxGeometry y="86" width="160" height="26" as="geometry" />
        </mxCell>
        <mxCell id="HzdkbjWVnRiLDoLoKct_-133" value="+ moveLeft()" style="text;strokeColor=#2D7600;fillColor=#60a917;align=left;verticalAlign=top;spacingLeft=4;spacingRight=4;overflow=hidden;rotatable=0;points=[[0,0.5],[1,0.5]];portConstraint=eastwest;whiteSpace=wrap;html=1;fontColor=#ffffff;" parent="HzdkbjWVnRiLDoLoKct_-25" vertex="1">
          <mxGeometry y="112" width="160" height="26" as="geometry" />
        </mxCell>
        <mxCell id="HzdkbjWVnRiLDoLoKct_-134" value="+ moveRight()" style="text;strokeColor=#2D7600;fillColor=#60a917;align=left;verticalAlign=top;spacingLeft=4;spacingRight=4;overflow=hidden;rotatable=0;points=[[0,0.5],[1,0.5]];portConstraint=eastwest;whiteSpace=wrap;html=1;fontColor=#ffffff;" parent="HzdkbjWVnRiLDoLoKct_-25" vertex="1">
          <mxGeometry y="138" width="160" height="26" as="geometry" />
        </mxCell>
        <mxCell id="HzdkbjWVnRiLDoLoKct_-135" value="+ moveUp()" style="text;strokeColor=#2D7600;fillColor=#60a917;align=left;verticalAlign=top;spacingLeft=4;spacingRight=4;overflow=hidden;rotatable=0;points=[[0,0.5],[1,0.5]];portConstraint=eastwest;whiteSpace=wrap;html=1;fontColor=#ffffff;" parent="HzdkbjWVnRiLDoLoKct_-25" vertex="1">
          <mxGeometry y="164" width="160" height="26" as="geometry" />
        </mxCell>
        <mxCell id="HzdkbjWVnRiLDoLoKct_-137" value="+ moveDown()" style="text;strokeColor=#2D7600;fillColor=#60a917;align=left;verticalAlign=top;spacingLeft=4;spacingRight=4;overflow=hidden;rotatable=0;points=[[0,0.5],[1,0.5]];portConstraint=eastwest;whiteSpace=wrap;html=1;fontColor=#ffffff;" parent="HzdkbjWVnRiLDoLoKct_-25" vertex="1">
          <mxGeometry y="190" width="160" height="26" as="geometry" />
        </mxCell>
        <mxCell id="HzdkbjWVnRiLDoLoKct_-184" style="edgeStyle=orthogonalEdgeStyle;rounded=0;orthogonalLoop=1;jettySize=auto;html=1;exitX=0.5;exitY=1;exitDx=0;exitDy=0;" parent="WIyWlLk6GJQsqaUBKTNV-1" source="HzdkbjWVnRiLDoLoKct_-29" target="HzdkbjWVnRiLDoLoKct_-49" edge="1">
          <mxGeometry relative="1" as="geometry">
            <Array as="points">
              <mxPoint x="871" y="420" />
              <mxPoint x="766" y="420" />
            </Array>
          </mxGeometry>
        </mxCell>
        <mxCell id="HzdkbjWVnRiLDoLoKct_-185" style="edgeStyle=orthogonalEdgeStyle;rounded=0;orthogonalLoop=1;jettySize=auto;html=1;exitX=0.5;exitY=1;exitDx=0;exitDy=0;entryX=0.5;entryY=0;entryDx=0;entryDy=0;" parent="WIyWlLk6GJQsqaUBKTNV-1" source="HzdkbjWVnRiLDoLoKct_-29" target="HzdkbjWVnRiLDoLoKct_-53" edge="1">
          <mxGeometry relative="1" as="geometry">
            <Array as="points">
              <mxPoint x="871" y="420" />
              <mxPoint x="976" y="420" />
            </Array>
          </mxGeometry>
        </mxCell>
        <mxCell id="HzdkbjWVnRiLDoLoKct_-29" value="StaticObject" style="swimlane;fontStyle=1;align=center;verticalAlign=top;childLayout=stackLayout;horizontal=1;startSize=26;horizontalStack=0;resizeParent=1;resizeParentMax=0;resizeLast=0;collapsible=1;marginBottom=0;whiteSpace=wrap;html=1;" parent="WIyWlLk6GJQsqaUBKTNV-1" vertex="1">
          <mxGeometry x="791" y="320" width="160" height="86" as="geometry">
            <mxRectangle x="400" y="320" width="130" height="40" as="alternateBounds" />
          </mxGeometry>
        </mxCell>
        <mxCell id="HzdkbjWVnRiLDoLoKct_-30" value="+ " style="text;strokeColor=none;fillColor=none;align=left;verticalAlign=top;spacingLeft=4;spacingRight=4;overflow=hidden;rotatable=0;points=[[0,0.5],[1,0.5]];portConstraint=eastwest;whiteSpace=wrap;html=1;" parent="HzdkbjWVnRiLDoLoKct_-29" vertex="1">
          <mxGeometry y="26" width="160" height="26" as="geometry" />
        </mxCell>
        <mxCell id="HzdkbjWVnRiLDoLoKct_-31" value="" style="line;strokeWidth=1;fillColor=none;align=left;verticalAlign=middle;spacingTop=-1;spacingLeft=3;spacingRight=3;rotatable=0;labelPosition=right;points=[];portConstraint=eastwest;strokeColor=inherit;" parent="HzdkbjWVnRiLDoLoKct_-29" vertex="1">
          <mxGeometry y="52" width="160" height="8" as="geometry" />
        </mxCell>
        <mxCell id="HzdkbjWVnRiLDoLoKct_-32" value="+ constructor(path,x,y,w,h)" style="text;strokeColor=none;fillColor=none;align=left;verticalAlign=top;spacingLeft=4;spacingRight=4;overflow=hidden;rotatable=0;points=[[0,0.5],[1,0.5]];portConstraint=eastwest;whiteSpace=wrap;html=1;" parent="HzdkbjWVnRiLDoLoKct_-29" vertex="1">
          <mxGeometry y="60" width="160" height="26" as="geometry" />
        </mxCell>
        <mxCell id="BhJBI_x_kJEaHvdFS2TZ-17" style="edgeStyle=orthogonalEdgeStyle;rounded=0;orthogonalLoop=1;jettySize=auto;html=1;exitX=0.5;exitY=0;exitDx=0;exitDy=0;" parent="WIyWlLk6GJQsqaUBKTNV-1" source="HzdkbjWVnRiLDoLoKct_-41" edge="1">
          <mxGeometry relative="1" as="geometry">
            <mxPoint x="-130" y="1090" as="targetPoint" />
          </mxGeometry>
        </mxCell>
        <mxCell id="HzdkbjWVnRiLDoLoKct_-41" value="Sharky" style="swimlane;fontStyle=1;align=center;verticalAlign=top;childLayout=stackLayout;horizontal=1;startSize=26;horizontalStack=0;resizeParent=1;resizeParentMax=0;resizeLast=0;collapsible=1;marginBottom=0;whiteSpace=wrap;html=1;strokeColor=#00ff62;" parent="WIyWlLk6GJQsqaUBKTNV-1" vertex="1">
          <mxGeometry x="-420" y="1200" width="160" height="528" as="geometry">
            <mxRectangle x="30" y="780" width="130" height="40" as="alternateBounds" />
          </mxGeometry>
        </mxCell>
        <mxCell id="HzdkbjWVnRiLDoLoKct_-193" value="+ keyListener" style="text;strokeColor=#2D7600;fillColor=#60a917;align=left;verticalAlign=top;spacingLeft=4;spacingRight=4;overflow=hidden;rotatable=0;points=[[0,0.5],[1,0.5]];portConstraint=eastwest;whiteSpace=wrap;html=1;fontColor=#ffffff;" parent="HzdkbjWVnRiLDoLoKct_-41" vertex="1">
          <mxGeometry y="26" width="160" height="26" as="geometry" />
        </mxCell>
        <mxCell id="HzdkbjWVnRiLDoLoKct_-194" value="+ coins" style="text;strokeColor=none;fillColor=none;align=left;verticalAlign=top;spacingLeft=4;spacingRight=4;overflow=hidden;rotatable=0;points=[[0,0.5],[1,0.5]];portConstraint=eastwest;whiteSpace=wrap;html=1;" parent="HzdkbjWVnRiLDoLoKct_-41" vertex="1">
          <mxGeometry y="52" width="160" height="26" as="geometry" />
        </mxCell>
        <mxCell id="HzdkbjWVnRiLDoLoKct_-229" value="+ poison" style="text;strokeColor=#2D7600;fillColor=#60a917;align=left;verticalAlign=top;spacingLeft=4;spacingRight=4;overflow=hidden;rotatable=0;points=[[0,0.5],[1,0.5]];portConstraint=eastwest;whiteSpace=wrap;html=1;fontColor=#ffffff;" parent="HzdkbjWVnRiLDoLoKct_-41" vertex="1">
          <mxGeometry y="78" width="160" height="26" as="geometry" />
        </mxCell>
        <mxCell id="HzdkbjWVnRiLDoLoKct_-195" value="+ bubbles" style="text;strokeColor=#2D7600;fillColor=#60a917;align=left;verticalAlign=top;spacingLeft=4;spacingRight=4;overflow=hidden;rotatable=0;points=[[0,0.5],[1,0.5]];portConstraint=eastwest;whiteSpace=wrap;html=1;fontColor=#ffffff;" parent="HzdkbjWVnRiLDoLoKct_-41" vertex="1">
          <mxGeometry y="104" width="160" height="26" as="geometry" />
        </mxCell>
        <mxCell id="9fKX-wjSNF27q1v6EJUF-5" value="+ xOfst" style="text;strokeColor=#2D7600;fillColor=#60a917;align=left;verticalAlign=top;spacingLeft=4;spacingRight=4;overflow=hidden;rotatable=0;points=[[0,0.5],[1,0.5]];portConstraint=eastwest;whiteSpace=wrap;html=1;fontColor=#ffffff;" parent="HzdkbjWVnRiLDoLoKct_-41" vertex="1">
          <mxGeometry y="130" width="160" height="26" as="geometry" />
        </mxCell>
        <mxCell id="HzdkbjWVnRiLDoLoKct_-43" value="" style="line;strokeWidth=1;fillColor=none;align=left;verticalAlign=middle;spacingTop=-1;spacingLeft=3;spacingRight=3;rotatable=0;labelPosition=right;points=[];portConstraint=eastwest;strokeColor=inherit;" parent="HzdkbjWVnRiLDoLoKct_-41" vertex="1">
          <mxGeometry y="156" width="160" height="8" as="geometry" />
        </mxCell>
        <mxCell id="HzdkbjWVnRiLDoLoKct_-44" value="+ constructor(x,y,w,h)" style="text;fillColor=#60a917;align=left;verticalAlign=top;spacingLeft=4;spacingRight=4;overflow=hidden;rotatable=0;points=[[0,0.5],[1,0.5]];portConstraint=eastwest;whiteSpace=wrap;html=1;strokeColor=#2D7600;fontColor=#ffffff;" parent="HzdkbjWVnRiLDoLoKct_-41" vertex="1">
          <mxGeometry y="164" width="160" height="26" as="geometry" />
        </mxCell>
        <mxCell id="HzdkbjWVnRiLDoLoKct_-196" value="+ move()" style="text;fillColor=#60a917;align=left;verticalAlign=top;spacingLeft=4;spacingRight=4;overflow=hidden;rotatable=0;points=[[0,0.5],[1,0.5]];portConstraint=eastwest;whiteSpace=wrap;html=1;strokeColor=#2D7600;fontColor=#ffffff;" parent="HzdkbjWVnRiLDoLoKct_-41" vertex="1">
          <mxGeometry y="190" width="160" height="26" as="geometry" />
        </mxCell>
        <mxCell id="9fKX-wjSNF27q1v6EJUF-0" value="+ outsideLvlBorderRight()" style="text;fillColor=#60a917;align=left;verticalAlign=top;spacingLeft=4;spacingRight=4;overflow=hidden;rotatable=0;points=[[0,0.5],[1,0.5]];portConstraint=eastwest;whiteSpace=wrap;html=1;strokeColor=#2D7600;fontColor=#ffffff;" parent="HzdkbjWVnRiLDoLoKct_-41" vertex="1">
          <mxGeometry y="216" width="160" height="26" as="geometry" />
        </mxCell>
        <mxCell id="9fKX-wjSNF27q1v6EJUF-1" value="+ outsideLvlBorderLeft()" style="text;fillColor=#60a917;align=left;verticalAlign=top;spacingLeft=4;spacingRight=4;overflow=hidden;rotatable=0;points=[[0,0.5],[1,0.5]];portConstraint=eastwest;whiteSpace=wrap;html=1;strokeColor=#2D7600;fontColor=#ffffff;" parent="HzdkbjWVnRiLDoLoKct_-41" vertex="1">
          <mxGeometry y="242" width="160" height="26" as="geometry" />
        </mxCell>
        <mxCell id="9fKX-wjSNF27q1v6EJUF-2" value="+ outsideLvlBorderTop()" style="text;fillColor=#60a917;align=left;verticalAlign=top;spacingLeft=4;spacingRight=4;overflow=hidden;rotatable=0;points=[[0,0.5],[1,0.5]];portConstraint=eastwest;whiteSpace=wrap;html=1;strokeColor=#2D7600;fontColor=#ffffff;" parent="HzdkbjWVnRiLDoLoKct_-41" vertex="1">
          <mxGeometry y="268" width="160" height="26" as="geometry" />
        </mxCell>
        <mxCell id="9fKX-wjSNF27q1v6EJUF-3" value="+ outsideLvlBorderBottom()" style="text;fillColor=#60a917;align=left;verticalAlign=top;spacingLeft=4;spacingRight=4;overflow=hidden;rotatable=0;points=[[0,0.5],[1,0.5]];portConstraint=eastwest;whiteSpace=wrap;html=1;strokeColor=#2D7600;fontColor=#ffffff;" parent="HzdkbjWVnRiLDoLoKct_-41" vertex="1">
          <mxGeometry y="294" width="160" height="26" as="geometry" />
        </mxCell>
        <mxCell id="9fKX-wjSNF27q1v6EJUF-4" value="+&amp;nbsp;setCameraOfst&lt;span style=&quot;background-color: initial;&quot;&gt;()&lt;/span&gt;" style="text;fillColor=#60a917;align=left;verticalAlign=top;spacingLeft=4;spacingRight=4;overflow=hidden;rotatable=0;points=[[0,0.5],[1,0.5]];portConstraint=eastwest;whiteSpace=wrap;html=1;strokeColor=#2D7600;fontColor=#ffffff;" parent="HzdkbjWVnRiLDoLoKct_-41" vertex="1">
          <mxGeometry y="320" width="160" height="26" as="geometry" />
        </mxCell>
        <mxCell id="9fKX-wjSNF27q1v6EJUF-35" value="+&amp;nbsp;setDirection&lt;span style=&quot;background-color: initial;&quot;&gt;()&lt;/span&gt;" style="text;strokeColor=#2D7600;fillColor=#60a917;align=left;verticalAlign=top;spacingLeft=4;spacingRight=4;overflow=hidden;rotatable=0;points=[[0,0.5],[1,0.5]];portConstraint=eastwest;whiteSpace=wrap;html=1;fontColor=#ffffff;" parent="HzdkbjWVnRiLDoLoKct_-41" vertex="1">
          <mxGeometry y="346" width="160" height="26" as="geometry" />
        </mxCell>
        <mxCell id="9fKX-wjSNF27q1v6EJUF-34" value="+&amp;nbsp;attack&lt;span style=&quot;background-color: initial;&quot;&gt;()&lt;/span&gt;" style="text;strokeColor=#2D7600;fillColor=#60a917;align=left;verticalAlign=top;spacingLeft=4;spacingRight=4;overflow=hidden;rotatable=0;points=[[0,0.5],[1,0.5]];portConstraint=eastwest;whiteSpace=wrap;html=1;fontColor=#ffffff;" parent="HzdkbjWVnRiLDoLoKct_-41" vertex="1">
          <mxGeometry y="372" width="160" height="26" as="geometry" />
        </mxCell>
        <mxCell id="HzdkbjWVnRiLDoLoKct_-197" value="+&amp;nbsp;attackBubbleTrap&lt;span style=&quot;background-color: initial;&quot;&gt;()&lt;/span&gt;" style="text;strokeColor=#2D7600;fillColor=#60a917;align=left;verticalAlign=top;spacingLeft=4;spacingRight=4;overflow=hidden;rotatable=0;points=[[0,0.5],[1,0.5]];portConstraint=eastwest;whiteSpace=wrap;html=1;fontColor=#ffffff;" parent="HzdkbjWVnRiLDoLoKct_-41" vertex="1">
          <mxGeometry y="398" width="160" height="26" as="geometry" />
        </mxCell>
        <mxCell id="9fKX-wjSNF27q1v6EJUF-36" value="+&amp;nbsp;chooseBubbleType&lt;span style=&quot;background-color: initial;&quot;&gt;()&lt;/span&gt;" style="text;strokeColor=#2D7600;fillColor=#60a917;align=left;verticalAlign=top;spacingLeft=4;spacingRight=4;overflow=hidden;rotatable=0;points=[[0,0.5],[1,0.5]];portConstraint=eastwest;whiteSpace=wrap;html=1;fontColor=#ffffff;" parent="HzdkbjWVnRiLDoLoKct_-41" vertex="1">
          <mxGeometry y="424" width="160" height="26" as="geometry" />
        </mxCell>
        <mxCell id="9fKX-wjSNF27q1v6EJUF-37" value="+&amp;nbsp;loadBubbleShot&lt;span style=&quot;background-color: initial;&quot;&gt;()&lt;/span&gt;" style="text;strokeColor=#2D7600;fillColor=#60a917;align=left;verticalAlign=top;spacingLeft=4;spacingRight=4;overflow=hidden;rotatable=0;points=[[0,0.5],[1,0.5]];portConstraint=eastwest;whiteSpace=wrap;html=1;fontColor=#ffffff;" parent="HzdkbjWVnRiLDoLoKct_-41" vertex="1">
          <mxGeometry y="450" width="160" height="26" as="geometry" />
        </mxCell>
        <mxCell id="HzdkbjWVnRiLDoLoKct_-198" value="+ attackShock()" style="text;strokeColor=none;fillColor=none;align=left;verticalAlign=top;spacingLeft=4;spacingRight=4;overflow=hidden;rotatable=0;points=[[0,0.5],[1,0.5]];portConstraint=eastwest;whiteSpace=wrap;html=1;" parent="HzdkbjWVnRiLDoLoKct_-41" vertex="1">
          <mxGeometry y="476" width="160" height="26" as="geometry" />
        </mxCell>
        <mxCell id="HzdkbjWVnRiLDoLoKct_-202" value="+ chooseAnimation()" style="text;strokeColor=none;fillColor=none;align=left;verticalAlign=top;spacingLeft=4;spacingRight=4;overflow=hidden;rotatable=0;points=[[0,0.5],[1,0.5]];portConstraint=eastwest;whiteSpace=wrap;html=1;" parent="HzdkbjWVnRiLDoLoKct_-41" vertex="1">
          <mxGeometry y="502" width="160" height="26" as="geometry" />
        </mxCell>
        <mxCell id="HzdkbjWVnRiLDoLoKct_-49" value="Background" style="swimlane;fontStyle=1;align=center;verticalAlign=top;childLayout=stackLayout;horizontal=1;startSize=26;horizontalStack=0;resizeParent=1;resizeParentMax=0;resizeLast=0;collapsible=1;marginBottom=0;whiteSpace=wrap;html=1;strokeColor=#60a917;" parent="WIyWlLk6GJQsqaUBKTNV-1" vertex="1">
          <mxGeometry x="701" y="440" width="160" height="86" as="geometry">
            <mxRectangle x="701" y="440" width="130" height="40" as="alternateBounds" />
          </mxGeometry>
        </mxCell>
        <mxCell id="HzdkbjWVnRiLDoLoKct_-50" value="+&amp;nbsp;" style="text;strokeColor=none;fillColor=none;align=left;verticalAlign=top;spacingLeft=4;spacingRight=4;overflow=hidden;rotatable=0;points=[[0,0.5],[1,0.5]];portConstraint=eastwest;whiteSpace=wrap;html=1;" parent="HzdkbjWVnRiLDoLoKct_-49" vertex="1">
          <mxGeometry y="26" width="160" height="26" as="geometry" />
        </mxCell>
        <mxCell id="HzdkbjWVnRiLDoLoKct_-51" value="" style="line;strokeWidth=1;fillColor=none;align=left;verticalAlign=middle;spacingTop=-1;spacingLeft=3;spacingRight=3;rotatable=0;labelPosition=right;points=[];portConstraint=eastwest;strokeColor=inherit;" parent="HzdkbjWVnRiLDoLoKct_-49" vertex="1">
          <mxGeometry y="52" width="160" height="8" as="geometry" />
        </mxCell>
        <mxCell id="HzdkbjWVnRiLDoLoKct_-52" value="+ constructor()" style="text;strokeColor=#2D7600;fillColor=#60a917;align=left;verticalAlign=top;spacingLeft=4;spacingRight=4;overflow=hidden;rotatable=0;points=[[0,0.5],[1,0.5]];portConstraint=eastwest;whiteSpace=wrap;html=1;fontColor=#ffffff;" parent="HzdkbjWVnRiLDoLoKct_-49" vertex="1">
          <mxGeometry y="60" width="160" height="26" as="geometry" />
        </mxCell>
        <mxCell id="HzdkbjWVnRiLDoLoKct_-53" value="barrier" style="swimlane;fontStyle=1;align=center;verticalAlign=top;childLayout=stackLayout;horizontal=1;startSize=26;horizontalStack=0;resizeParent=1;resizeParentMax=0;resizeLast=0;collapsible=1;marginBottom=0;whiteSpace=wrap;html=1;" parent="WIyWlLk6GJQsqaUBKTNV-1" vertex="1" collapsed="1">
          <mxGeometry x="911" y="440" width="130" height="40" as="geometry">
            <mxRectangle x="230" y="170" width="160" height="86" as="alternateBounds" />
          </mxGeometry>
        </mxCell>
        <mxCell id="HzdkbjWVnRiLDoLoKct_-54" value="+ field: type" style="text;strokeColor=none;fillColor=none;align=left;verticalAlign=top;spacingLeft=4;spacingRight=4;overflow=hidden;rotatable=0;points=[[0,0.5],[1,0.5]];portConstraint=eastwest;whiteSpace=wrap;html=1;" parent="HzdkbjWVnRiLDoLoKct_-53" vertex="1">
          <mxGeometry y="26" width="160" height="26" as="geometry" />
        </mxCell>
        <mxCell id="HzdkbjWVnRiLDoLoKct_-55" value="" style="line;strokeWidth=1;fillColor=none;align=left;verticalAlign=middle;spacingTop=-1;spacingLeft=3;spacingRight=3;rotatable=0;labelPosition=right;points=[];portConstraint=eastwest;strokeColor=inherit;" parent="HzdkbjWVnRiLDoLoKct_-53" vertex="1">
          <mxGeometry y="52" width="160" height="8" as="geometry" />
        </mxCell>
        <mxCell id="HzdkbjWVnRiLDoLoKct_-56" value="+ method(type): type" style="text;strokeColor=none;fillColor=none;align=left;verticalAlign=top;spacingLeft=4;spacingRight=4;overflow=hidden;rotatable=0;points=[[0,0.5],[1,0.5]];portConstraint=eastwest;whiteSpace=wrap;html=1;" parent="HzdkbjWVnRiLDoLoKct_-53" vertex="1">
          <mxGeometry y="60" width="160" height="26" as="geometry" />
        </mxCell>
        <mxCell id="BhJBI_x_kJEaHvdFS2TZ-14" style="edgeStyle=orthogonalEdgeStyle;rounded=0;orthogonalLoop=1;jettySize=auto;html=1;exitX=0.5;exitY=0;exitDx=0;exitDy=0;entryX=0.5;entryY=1;entryDx=0;entryDy=0;" parent="WIyWlLk6GJQsqaUBKTNV-1" source="HzdkbjWVnRiLDoLoKct_-61" target="HzdkbjWVnRiLDoLoKct_-25" edge="1">
          <mxGeometry relative="1" as="geometry">
            <Array as="points">
              <mxPoint x="413" y="820" />
              <mxPoint x="190" y="820" />
            </Array>
          </mxGeometry>
        </mxCell>
        <mxCell id="HzdkbjWVnRiLDoLoKct_-61" value="bars" style="swimlane;fontStyle=1;align=center;verticalAlign=top;childLayout=stackLayout;horizontal=1;startSize=26;horizontalStack=0;resizeParent=1;resizeParentMax=0;resizeLast=0;collapsible=1;marginBottom=0;whiteSpace=wrap;html=1;" parent="WIyWlLk6GJQsqaUBKTNV-1" vertex="1" collapsed="1">
          <mxGeometry x="347.5" y="880" width="130" height="40" as="geometry">
            <mxRectangle x="230" y="170" width="160" height="86" as="alternateBounds" />
          </mxGeometry>
        </mxCell>
        <mxCell id="HzdkbjWVnRiLDoLoKct_-62" value="+ field: type" style="text;strokeColor=none;fillColor=none;align=left;verticalAlign=top;spacingLeft=4;spacingRight=4;overflow=hidden;rotatable=0;points=[[0,0.5],[1,0.5]];portConstraint=eastwest;whiteSpace=wrap;html=1;" parent="HzdkbjWVnRiLDoLoKct_-61" vertex="1">
          <mxGeometry y="26" width="160" height="26" as="geometry" />
        </mxCell>
        <mxCell id="HzdkbjWVnRiLDoLoKct_-63" value="" style="line;strokeWidth=1;fillColor=none;align=left;verticalAlign=middle;spacingTop=-1;spacingLeft=3;spacingRight=3;rotatable=0;labelPosition=right;points=[];portConstraint=eastwest;strokeColor=inherit;" parent="HzdkbjWVnRiLDoLoKct_-61" vertex="1">
          <mxGeometry y="52" width="160" height="8" as="geometry" />
        </mxCell>
        <mxCell id="HzdkbjWVnRiLDoLoKct_-64" value="+ method(type): type" style="text;strokeColor=none;fillColor=none;align=left;verticalAlign=top;spacingLeft=4;spacingRight=4;overflow=hidden;rotatable=0;points=[[0,0.5],[1,0.5]];portConstraint=eastwest;whiteSpace=wrap;html=1;" parent="HzdkbjWVnRiLDoLoKct_-61" vertex="1">
          <mxGeometry y="60" width="160" height="26" as="geometry" />
        </mxCell>
        <mxCell id="BhJBI_x_kJEaHvdFS2TZ-20" style="edgeStyle=orthogonalEdgeStyle;rounded=0;orthogonalLoop=1;jettySize=auto;html=1;exitX=0.5;exitY=0;exitDx=0;exitDy=0;" parent="WIyWlLk6GJQsqaUBKTNV-1" source="HzdkbjWVnRiLDoLoKct_-65" edge="1">
          <mxGeometry relative="1" as="geometry">
            <mxPoint x="-130" y="1090" as="targetPoint" />
          </mxGeometry>
        </mxCell>
        <mxCell id="HzdkbjWVnRiLDoLoKct_-65" value="Endbos" style="swimlane;fontStyle=1;align=center;verticalAlign=top;childLayout=stackLayout;horizontal=1;startSize=26;horizontalStack=0;resizeParent=1;resizeParentMax=0;resizeLast=0;collapsible=1;marginBottom=0;whiteSpace=wrap;html=1;strokeColor=#60a917;" parent="WIyWlLk6GJQsqaUBKTNV-1" vertex="1">
          <mxGeometry x="210" y="1200" width="160" height="190" as="geometry">
            <mxRectangle x="647.5" y="1250" width="130" height="40" as="alternateBounds" />
          </mxGeometry>
        </mxCell>
        <mxCell id="HzdkbjWVnRiLDoLoKct_-213" value="+ ??" style="text;strokeColor=none;fillColor=none;align=left;verticalAlign=top;spacingLeft=4;spacingRight=4;overflow=hidden;rotatable=0;points=[[0,0.5],[1,0.5]];portConstraint=eastwest;whiteSpace=wrap;html=1;" parent="HzdkbjWVnRiLDoLoKct_-65" vertex="1">
          <mxGeometry y="26" width="160" height="26" as="geometry" />
        </mxCell>
        <mxCell id="HzdkbjWVnRiLDoLoKct_-67" value="" style="line;strokeWidth=1;fillColor=none;align=left;verticalAlign=middle;spacingTop=-1;spacingLeft=3;spacingRight=3;rotatable=0;labelPosition=right;points=[];portConstraint=eastwest;strokeColor=inherit;" parent="HzdkbjWVnRiLDoLoKct_-65" vertex="1">
          <mxGeometry y="52" width="160" height="8" as="geometry" />
        </mxCell>
        <mxCell id="HzdkbjWVnRiLDoLoKct_-68" value="+ constructor()" style="text;strokeColor=none;fillColor=none;align=left;verticalAlign=top;spacingLeft=4;spacingRight=4;overflow=hidden;rotatable=0;points=[[0,0.5],[1,0.5]];portConstraint=eastwest;whiteSpace=wrap;html=1;" parent="HzdkbjWVnRiLDoLoKct_-65" vertex="1">
          <mxGeometry y="60" width="160" height="26" as="geometry" />
        </mxCell>
        <mxCell id="HzdkbjWVnRiLDoLoKct_-214" value="+ moveAutomatic()" style="text;strokeColor=none;fillColor=none;align=left;verticalAlign=top;spacingLeft=4;spacingRight=4;overflow=hidden;rotatable=0;points=[[0,0.5],[1,0.5]];portConstraint=eastwest;whiteSpace=wrap;html=1;" parent="HzdkbjWVnRiLDoLoKct_-65" vertex="1">
          <mxGeometry y="86" width="160" height="26" as="geometry" />
        </mxCell>
        <mxCell id="HzdkbjWVnRiLDoLoKct_-215" value="+ attack()" style="text;strokeColor=none;fillColor=none;align=left;verticalAlign=top;spacingLeft=4;spacingRight=4;overflow=hidden;rotatable=0;points=[[0,0.5],[1,0.5]];portConstraint=eastwest;whiteSpace=wrap;html=1;" parent="HzdkbjWVnRiLDoLoKct_-65" vertex="1">
          <mxGeometry y="112" width="160" height="26" as="geometry" />
        </mxCell>
        <mxCell id="bvN_b5cQFGvg45w8M5s2-0" value="+ move()" style="text;strokeColor=#2D7600;fillColor=#60a917;align=left;verticalAlign=top;spacingLeft=4;spacingRight=4;overflow=hidden;rotatable=0;points=[[0,0.5],[1,0.5]];portConstraint=eastwest;whiteSpace=wrap;html=1;fontColor=#ffffff;" parent="HzdkbjWVnRiLDoLoKct_-65" vertex="1">
          <mxGeometry y="138" width="160" height="26" as="geometry" />
        </mxCell>
        <mxCell id="HzdkbjWVnRiLDoLoKct_-218" value="+ chooseAnimation()" style="text;strokeColor=none;fillColor=none;align=left;verticalAlign=top;spacingLeft=4;spacingRight=4;overflow=hidden;rotatable=0;points=[[0,0.5],[1,0.5]];portConstraint=eastwest;whiteSpace=wrap;html=1;" parent="HzdkbjWVnRiLDoLoKct_-65" vertex="1">
          <mxGeometry y="164" width="160" height="26" as="geometry" />
        </mxCell>
        <mxCell id="BhJBI_x_kJEaHvdFS2TZ-18" style="edgeStyle=orthogonalEdgeStyle;rounded=0;orthogonalLoop=1;jettySize=auto;html=1;exitX=0.5;exitY=0;exitDx=0;exitDy=0;" parent="WIyWlLk6GJQsqaUBKTNV-1" source="HzdkbjWVnRiLDoLoKct_-69" edge="1">
          <mxGeometry relative="1" as="geometry">
            <mxPoint x="-130" y="1090" as="targetPoint" />
          </mxGeometry>
        </mxCell>
        <mxCell id="HzdkbjWVnRiLDoLoKct_-69" value="Jellyfish" style="swimlane;fontStyle=1;align=center;verticalAlign=top;childLayout=stackLayout;horizontal=1;startSize=26;horizontalStack=0;resizeParent=1;resizeParentMax=0;resizeLast=0;collapsible=1;marginBottom=0;whiteSpace=wrap;html=1;strokeColor=#60a917;" parent="WIyWlLk6GJQsqaUBKTNV-1" vertex="1">
          <mxGeometry x="-200" y="1200" width="160" height="268" as="geometry">
            <mxRectangle x="160" y="990" width="130" height="40" as="alternateBounds" />
          </mxGeometry>
        </mxCell>
        <mxCell id="HzdkbjWVnRiLDoLoKct_-71" value="" style="line;strokeWidth=1;fillColor=none;align=left;verticalAlign=middle;spacingTop=-1;spacingLeft=3;spacingRight=3;rotatable=0;labelPosition=right;points=[];portConstraint=eastwest;strokeColor=inherit;" parent="HzdkbjWVnRiLDoLoKct_-69" vertex="1">
          <mxGeometry y="26" width="160" height="8" as="geometry" />
        </mxCell>
        <mxCell id="HzdkbjWVnRiLDoLoKct_-72" value="+ constructor()" style="text;strokeColor=#2D7600;fillColor=#60a917;align=left;verticalAlign=top;spacingLeft=4;spacingRight=4;overflow=hidden;rotatable=0;points=[[0,0.5],[1,0.5]];portConstraint=eastwest;whiteSpace=wrap;html=1;fontColor=#ffffff;" parent="HzdkbjWVnRiLDoLoKct_-69" vertex="1">
          <mxGeometry y="34" width="160" height="26" as="geometry" />
        </mxCell>
        <mxCell id="HzdkbjWVnRiLDoLoKct_-204" value="+ move()" style="text;strokeColor=#2D7600;fillColor=#60a917;align=left;verticalAlign=top;spacingLeft=4;spacingRight=4;overflow=hidden;rotatable=0;points=[[0,0.5],[1,0.5]];portConstraint=eastwest;whiteSpace=wrap;html=1;fontColor=#ffffff;" parent="HzdkbjWVnRiLDoLoKct_-69" vertex="1">
          <mxGeometry y="60" width="160" height="26" as="geometry" />
        </mxCell>
        <mxCell id="9fKX-wjSNF27q1v6EJUF-43" value="+ outsideLvlBorderRight()" style="text;fillColor=#60a917;align=left;verticalAlign=top;spacingLeft=4;spacingRight=4;overflow=hidden;rotatable=0;points=[[0,0.5],[1,0.5]];portConstraint=eastwest;whiteSpace=wrap;html=1;strokeColor=#2D7600;fontColor=#ffffff;" parent="HzdkbjWVnRiLDoLoKct_-69" vertex="1">
          <mxGeometry y="86" width="160" height="26" as="geometry" />
        </mxCell>
        <mxCell id="9fKX-wjSNF27q1v6EJUF-44" value="+ outsideLvlBorderLeft()" style="text;fillColor=#60a917;align=left;verticalAlign=top;spacingLeft=4;spacingRight=4;overflow=hidden;rotatable=0;points=[[0,0.5],[1,0.5]];portConstraint=eastwest;whiteSpace=wrap;html=1;strokeColor=#2D7600;fontColor=#ffffff;" parent="HzdkbjWVnRiLDoLoKct_-69" vertex="1">
          <mxGeometry y="112" width="160" height="26" as="geometry" />
        </mxCell>
        <mxCell id="9fKX-wjSNF27q1v6EJUF-46" value="+ outsideLvlBorderBottom()" style="text;fillColor=#60a917;align=left;verticalAlign=top;spacingLeft=4;spacingRight=4;overflow=hidden;rotatable=0;points=[[0,0.5],[1,0.5]];portConstraint=eastwest;whiteSpace=wrap;html=1;strokeColor=#2D7600;fontColor=#ffffff;" parent="HzdkbjWVnRiLDoLoKct_-69" vertex="1">
          <mxGeometry y="138" width="160" height="26" as="geometry" />
        </mxCell>
        <mxCell id="9fKX-wjSNF27q1v6EJUF-45" value="+ outsideLvlBorderTop()" style="text;fillColor=#60a917;align=left;verticalAlign=top;spacingLeft=4;spacingRight=4;overflow=hidden;rotatable=0;points=[[0,0.5],[1,0.5]];portConstraint=eastwest;whiteSpace=wrap;html=1;strokeColor=#2D7600;fontColor=#ffffff;" parent="HzdkbjWVnRiLDoLoKct_-69" vertex="1">
          <mxGeometry y="164" width="160" height="26" as="geometry" />
        </mxCell>
        <mxCell id="9fKX-wjSNF27q1v6EJUF-47" value="+ checkLevelBorder()" style="text;fillColor=#60a917;align=left;verticalAlign=top;spacingLeft=4;spacingRight=4;overflow=hidden;rotatable=0;points=[[0,0.5],[1,0.5]];portConstraint=eastwest;whiteSpace=wrap;html=1;strokeColor=#2D7600;fontColor=#ffffff;" parent="HzdkbjWVnRiLDoLoKct_-69" vertex="1">
          <mxGeometry y="190" width="160" height="26" as="geometry" />
        </mxCell>
        <mxCell id="HzdkbjWVnRiLDoLoKct_-205" value="+ attack()" style="text;strokeColor=none;fillColor=none;align=left;verticalAlign=top;spacingLeft=4;spacingRight=4;overflow=hidden;rotatable=0;points=[[0,0.5],[1,0.5]];portConstraint=eastwest;whiteSpace=wrap;html=1;" parent="HzdkbjWVnRiLDoLoKct_-69" vertex="1">
          <mxGeometry y="216" width="160" height="26" as="geometry" />
        </mxCell>
        <mxCell id="HzdkbjWVnRiLDoLoKct_-207" value="+ chooseAnimation()" style="text;strokeColor=none;fillColor=none;align=left;verticalAlign=top;spacingLeft=4;spacingRight=4;overflow=hidden;rotatable=0;points=[[0,0.5],[1,0.5]];portConstraint=eastwest;whiteSpace=wrap;html=1;" parent="HzdkbjWVnRiLDoLoKct_-69" vertex="1">
          <mxGeometry y="242" width="160" height="26" as="geometry" />
        </mxCell>
        <mxCell id="BhJBI_x_kJEaHvdFS2TZ-19" style="edgeStyle=orthogonalEdgeStyle;rounded=0;orthogonalLoop=1;jettySize=auto;html=1;exitX=0.5;exitY=0;exitDx=0;exitDy=0;" parent="WIyWlLk6GJQsqaUBKTNV-1" source="HzdkbjWVnRiLDoLoKct_-73" edge="1">
          <mxGeometry relative="1" as="geometry">
            <mxPoint x="-130" y="1090" as="targetPoint" />
          </mxGeometry>
        </mxCell>
        <mxCell id="HzdkbjWVnRiLDoLoKct_-73" value="Pufferfish" style="swimlane;fontStyle=1;align=center;verticalAlign=top;childLayout=stackLayout;horizontal=1;startSize=26;horizontalStack=0;resizeParent=1;resizeParentMax=0;resizeLast=0;collapsible=1;marginBottom=0;whiteSpace=wrap;html=1;strokeColor=#60a917;" parent="WIyWlLk6GJQsqaUBKTNV-1" vertex="1">
          <mxGeometry x="7.5" y="1200" width="160" height="164" as="geometry">
            <mxRectangle x="332.5" y="1000" width="130" height="40" as="alternateBounds" />
          </mxGeometry>
        </mxCell>
        <mxCell id="HzdkbjWVnRiLDoLoKct_-75" value="" style="line;strokeWidth=1;fillColor=none;align=left;verticalAlign=middle;spacingTop=-1;spacingLeft=3;spacingRight=3;rotatable=0;labelPosition=right;points=[];portConstraint=eastwest;strokeColor=inherit;" parent="HzdkbjWVnRiLDoLoKct_-73" vertex="1">
          <mxGeometry y="26" width="160" height="8" as="geometry" />
        </mxCell>
        <mxCell id="HzdkbjWVnRiLDoLoKct_-76" value="+ constructor()" style="text;strokeColor=#2D7600;fillColor=#60a917;align=left;verticalAlign=top;spacingLeft=4;spacingRight=4;overflow=hidden;rotatable=0;points=[[0,0.5],[1,0.5]];portConstraint=eastwest;whiteSpace=wrap;html=1;fontColor=#ffffff;" parent="HzdkbjWVnRiLDoLoKct_-73" vertex="1">
          <mxGeometry y="34" width="160" height="26" as="geometry" />
        </mxCell>
        <mxCell id="HzdkbjWVnRiLDoLoKct_-209" value="+ move()" style="text;strokeColor=#2D7600;fillColor=#60a917;align=left;verticalAlign=top;spacingLeft=4;spacingRight=4;overflow=hidden;rotatable=0;points=[[0,0.5],[1,0.5]];portConstraint=eastwest;whiteSpace=wrap;html=1;fontColor=#ffffff;" parent="HzdkbjWVnRiLDoLoKct_-73" vertex="1">
          <mxGeometry y="60" width="160" height="26" as="geometry" />
        </mxCell>
        <mxCell id="9fKX-wjSNF27q1v6EJUF-48" value="+ outsideLvlBorderRight()" style="text;fillColor=#60a917;align=left;verticalAlign=top;spacingLeft=4;spacingRight=4;overflow=hidden;rotatable=0;points=[[0,0.5],[1,0.5]];portConstraint=eastwest;whiteSpace=wrap;html=1;strokeColor=#2D7600;fontColor=#ffffff;" parent="HzdkbjWVnRiLDoLoKct_-73" vertex="1">
          <mxGeometry y="86" width="160" height="26" as="geometry" />
        </mxCell>
        <mxCell id="9fKX-wjSNF27q1v6EJUF-49" value="+ outsideLvlBorderLeft()" style="text;fillColor=#60a917;align=left;verticalAlign=top;spacingLeft=4;spacingRight=4;overflow=hidden;rotatable=0;points=[[0,0.5],[1,0.5]];portConstraint=eastwest;whiteSpace=wrap;html=1;strokeColor=#2D7600;fontColor=#ffffff;" parent="HzdkbjWVnRiLDoLoKct_-73" vertex="1">
          <mxGeometry y="112" width="160" height="26" as="geometry" />
        </mxCell>
        <mxCell id="HzdkbjWVnRiLDoLoKct_-212" value="+ chooseAnimation()" style="text;strokeColor=none;fillColor=none;align=left;verticalAlign=top;spacingLeft=4;spacingRight=4;overflow=hidden;rotatable=0;points=[[0,0.5],[1,0.5]];portConstraint=eastwest;whiteSpace=wrap;html=1;" parent="HzdkbjWVnRiLDoLoKct_-73" vertex="1">
          <mxGeometry y="138" width="160" height="26" as="geometry" />
        </mxCell>
        <mxCell id="BhJBI_x_kJEaHvdFS2TZ-12" style="edgeStyle=orthogonalEdgeStyle;rounded=0;orthogonalLoop=1;jettySize=auto;html=1;exitX=0.5;exitY=0;exitDx=0;exitDy=0;entryX=0.5;entryY=1;entryDx=0;entryDy=0;" parent="WIyWlLk6GJQsqaUBKTNV-1" source="HzdkbjWVnRiLDoLoKct_-77" target="HzdkbjWVnRiLDoLoKct_-25" edge="1">
          <mxGeometry relative="1" as="geometry" />
        </mxCell>
        <mxCell id="HzdkbjWVnRiLDoLoKct_-77" value="bgFish" style="swimlane;fontStyle=1;align=center;verticalAlign=top;childLayout=stackLayout;horizontal=1;startSize=26;horizontalStack=0;resizeParent=1;resizeParentMax=0;resizeLast=0;collapsible=1;marginBottom=0;whiteSpace=wrap;html=1;" parent="WIyWlLk6GJQsqaUBKTNV-1" vertex="1">
          <mxGeometry x="110" y="870" width="160" height="86" as="geometry">
            <mxRectangle x="806" y="880" width="130" height="40" as="alternateBounds" />
          </mxGeometry>
        </mxCell>
        <mxCell id="HzdkbjWVnRiLDoLoKct_-78" value="+&amp;nbsp;" style="text;strokeColor=none;fillColor=none;align=left;verticalAlign=top;spacingLeft=4;spacingRight=4;overflow=hidden;rotatable=0;points=[[0,0.5],[1,0.5]];portConstraint=eastwest;whiteSpace=wrap;html=1;" parent="HzdkbjWVnRiLDoLoKct_-77" vertex="1">
          <mxGeometry y="26" width="160" height="26" as="geometry" />
        </mxCell>
        <mxCell id="HzdkbjWVnRiLDoLoKct_-79" value="" style="line;strokeWidth=1;fillColor=none;align=left;verticalAlign=middle;spacingTop=-1;spacingLeft=3;spacingRight=3;rotatable=0;labelPosition=right;points=[];portConstraint=eastwest;strokeColor=inherit;" parent="HzdkbjWVnRiLDoLoKct_-77" vertex="1">
          <mxGeometry y="52" width="160" height="8" as="geometry" />
        </mxCell>
        <mxCell id="HzdkbjWVnRiLDoLoKct_-80" value="+ constructor()" style="text;strokeColor=none;fillColor=none;align=left;verticalAlign=top;spacingLeft=4;spacingRight=4;overflow=hidden;rotatable=0;points=[[0,0.5],[1,0.5]];portConstraint=eastwest;whiteSpace=wrap;html=1;" parent="HzdkbjWVnRiLDoLoKct_-77" vertex="1">
          <mxGeometry y="60" width="160" height="26" as="geometry" />
        </mxCell>
        <mxCell id="HzdkbjWVnRiLDoLoKct_-99" value="level" style="swimlane;fontStyle=1;align=center;verticalAlign=top;childLayout=stackLayout;horizontal=1;startSize=26;horizontalStack=0;resizeParent=1;resizeParentMax=0;resizeLast=0;collapsible=1;marginBottom=0;whiteSpace=wrap;html=1;strokeColor=#60a917;" parent="WIyWlLk6GJQsqaUBKTNV-1" vertex="1">
          <mxGeometry x="827" y="-92" width="160" height="268" as="geometry">
            <mxRectangle x="610" y="230" width="130" height="40" as="alternateBounds" />
          </mxGeometry>
        </mxCell>
        <mxCell id="HzdkbjWVnRiLDoLoKct_-106" value="+ backgroundImgs" style="text;strokeColor=#2D7600;fillColor=#60a917;align=left;verticalAlign=top;spacingLeft=4;spacingRight=4;overflow=hidden;rotatable=0;points=[[0,0.5],[1,0.5]];portConstraint=eastwest;whiteSpace=wrap;html=1;fontColor=#ffffff;" parent="HzdkbjWVnRiLDoLoKct_-99" vertex="1">
          <mxGeometry y="26" width="160" height="26" as="geometry" />
        </mxCell>
        <mxCell id="HzdkbjWVnRiLDoLoKct_-104" value="+ background" style="text;strokeColor=#2D7600;fillColor=#60a917;align=left;verticalAlign=top;spacingLeft=4;spacingRight=4;overflow=hidden;rotatable=0;points=[[0,0.5],[1,0.5]];portConstraint=eastwest;whiteSpace=wrap;html=1;fontColor=#ffffff;" parent="HzdkbjWVnRiLDoLoKct_-99" vertex="1">
          <mxGeometry y="52" width="160" height="26" as="geometry" />
        </mxCell>
        <mxCell id="HzdkbjWVnRiLDoLoKct_-105" value="+ obstacles" style="text;strokeColor=#2D7600;fillColor=#60a917;align=left;verticalAlign=top;spacingLeft=4;spacingRight=4;overflow=hidden;rotatable=0;points=[[0,0.5],[1,0.5]];portConstraint=eastwest;whiteSpace=wrap;html=1;fontColor=#ffffff;" parent="HzdkbjWVnRiLDoLoKct_-99" vertex="1">
          <mxGeometry y="78" width="160" height="26" as="geometry" />
        </mxCell>
        <mxCell id="HzdkbjWVnRiLDoLoKct_-103" value="+ enemies" style="text;strokeColor=#2D7600;fillColor=#60a917;align=left;verticalAlign=top;spacingLeft=4;spacingRight=4;overflow=hidden;rotatable=0;points=[[0,0.5],[1,0.5]];portConstraint=eastwest;whiteSpace=wrap;html=1;fontColor=#ffffff;" parent="HzdkbjWVnRiLDoLoKct_-99" vertex="1">
          <mxGeometry y="104" width="160" height="26" as="geometry" />
        </mxCell>
        <mxCell id="HzdkbjWVnRiLDoLoKct_-266" value="+ collectables" style="text;strokeColor=#2D7600;fillColor=#60a917;align=left;verticalAlign=top;spacingLeft=4;spacingRight=4;overflow=hidden;rotatable=0;points=[[0,0.5],[1,0.5]];portConstraint=eastwest;whiteSpace=wrap;html=1;fontColor=#ffffff;" parent="HzdkbjWVnRiLDoLoKct_-99" vertex="1">
          <mxGeometry y="130" width="160" height="26" as="geometry" />
        </mxCell>
        <mxCell id="HzdkbjWVnRiLDoLoKct_-288" value="+ length" style="text;strokeColor=#2D7600;fillColor=#60a917;align=left;verticalAlign=top;spacingLeft=4;spacingRight=4;overflow=hidden;rotatable=0;points=[[0,0.5],[1,0.5]];portConstraint=eastwest;whiteSpace=wrap;html=1;fontColor=#ffffff;" parent="HzdkbjWVnRiLDoLoKct_-99" vertex="1">
          <mxGeometry y="156" width="160" height="26" as="geometry" />
        </mxCell>
        <mxCell id="HzdkbjWVnRiLDoLoKct_-289" value="+ height" style="text;strokeColor=#2D7600;fillColor=#60a917;align=left;verticalAlign=top;spacingLeft=4;spacingRight=4;overflow=hidden;rotatable=0;points=[[0,0.5],[1,0.5]];portConstraint=eastwest;whiteSpace=wrap;html=1;fontColor=#ffffff;" parent="HzdkbjWVnRiLDoLoKct_-99" vertex="1">
          <mxGeometry y="182" width="160" height="26" as="geometry" />
        </mxCell>
        <mxCell id="HzdkbjWVnRiLDoLoKct_-101" value="" style="line;strokeWidth=1;fillColor=none;align=left;verticalAlign=middle;spacingTop=-1;spacingLeft=3;spacingRight=3;rotatable=0;labelPosition=right;points=[];portConstraint=eastwest;strokeColor=inherit;" parent="HzdkbjWVnRiLDoLoKct_-99" vertex="1">
          <mxGeometry y="208" width="160" height="8" as="geometry" />
        </mxCell>
        <mxCell id="HzdkbjWVnRiLDoLoKct_-102" value="+ constructor(level)" style="text;strokeColor=#2D7600;fillColor=#60a917;align=left;verticalAlign=top;spacingLeft=4;spacingRight=4;overflow=hidden;rotatable=0;points=[[0,0.5],[1,0.5]];portConstraint=eastwest;whiteSpace=wrap;html=1;fontColor=#ffffff;" parent="HzdkbjWVnRiLDoLoKct_-99" vertex="1">
          <mxGeometry y="216" width="160" height="26" as="geometry" />
        </mxCell>
        <mxCell id="9fKX-wjSNF27q1v6EJUF-27" value="+ setBgImgs(level)" style="text;strokeColor=#2D7600;fillColor=#60a917;align=left;verticalAlign=top;spacingLeft=4;spacingRight=4;overflow=hidden;rotatable=0;points=[[0,0.5],[1,0.5]];portConstraint=eastwest;whiteSpace=wrap;html=1;fontColor=#ffffff;" parent="HzdkbjWVnRiLDoLoKct_-99" vertex="1">
          <mxGeometry y="242" width="160" height="26" as="geometry" />
        </mxCell>
        <mxCell id="HzdkbjWVnRiLDoLoKct_-113" value="" style="endArrow=classic;html=1;rounded=0;" parent="WIyWlLk6GJQsqaUBKTNV-1" edge="1">
          <mxGeometry width="50" height="50" relative="1" as="geometry">
            <mxPoint x="240" y="-360" as="sourcePoint" />
            <mxPoint x="710" y="-360" as="targetPoint" />
          </mxGeometry>
        </mxCell>
        <mxCell id="HzdkbjWVnRiLDoLoKct_-114" value="" style="endArrow=classic;html=1;rounded=0;" parent="WIyWlLk6GJQsqaUBKTNV-1" edge="1">
          <mxGeometry width="50" height="50" relative="1" as="geometry">
            <mxPoint x="239" y="-361" as="sourcePoint" />
            <mxPoint x="239" y="-171" as="targetPoint" />
          </mxGeometry>
        </mxCell>
        <mxCell id="HzdkbjWVnRiLDoLoKct_-115" value="x" style="text;html=1;strokeColor=none;fillColor=none;align=center;verticalAlign=middle;whiteSpace=wrap;rounded=0;" parent="WIyWlLk6GJQsqaUBKTNV-1" vertex="1">
          <mxGeometry x="680" y="-390" width="60" height="30" as="geometry" />
        </mxCell>
        <mxCell id="HzdkbjWVnRiLDoLoKct_-116" value="y" style="text;html=1;strokeColor=none;fillColor=none;align=center;verticalAlign=middle;whiteSpace=wrap;rounded=0;" parent="WIyWlLk6GJQsqaUBKTNV-1" vertex="1">
          <mxGeometry x="190" y="-190" width="60" height="30" as="geometry" />
        </mxCell>
        <mxCell id="HzdkbjWVnRiLDoLoKct_-118" value="Map" style="rounded=0;whiteSpace=wrap;html=1;fillColor=#76608a;strokeColor=#432D57;align=left;verticalAlign=top;fontColor=#ffffff;" parent="WIyWlLk6GJQsqaUBKTNV-1" vertex="1">
          <mxGeometry x="241" y="-358" width="460" height="160" as="geometry" />
        </mxCell>
        <mxCell id="HzdkbjWVnRiLDoLoKct_-119" value="visible cutout" style="rounded=0;whiteSpace=wrap;html=1;align=left;verticalAlign=top;" parent="WIyWlLk6GJQsqaUBKTNV-1" vertex="1">
          <mxGeometry x="320" y="-358" width="140" height="158" as="geometry" />
        </mxCell>
        <mxCell id="HzdkbjWVnRiLDoLoKct_-120" value="char" style="rounded=0;whiteSpace=wrap;html=1;fillColor=#e51400;strokeColor=#B20000;fontColor=#ffffff;" parent="WIyWlLk6GJQsqaUBKTNV-1" vertex="1">
          <mxGeometry x="330" y="-250" width="45" height="40" as="geometry" />
        </mxCell>
        <mxCell id="HzdkbjWVnRiLDoLoKct_-121" value="enem" style="rounded=0;whiteSpace=wrap;html=1;fillColor=#6d8764;strokeColor=#3A5431;fontColor=#ffffff;" parent="WIyWlLk6GJQsqaUBKTNV-1" vertex="1">
          <mxGeometry x="430" y="-250" width="45" height="40" as="geometry" />
        </mxCell>
        <mxCell id="HzdkbjWVnRiLDoLoKct_-122" value="enem" style="rounded=0;whiteSpace=wrap;html=1;fillColor=#6d8764;strokeColor=#3A5431;fontColor=#ffffff;" parent="WIyWlLk6GJQsqaUBKTNV-1" vertex="1">
          <mxGeometry x="500" y="-250" width="45" height="40" as="geometry" />
        </mxCell>
        <mxCell id="HzdkbjWVnRiLDoLoKct_-123" value="enem" style="rounded=0;whiteSpace=wrap;html=1;fillColor=#6d8764;strokeColor=#3A5431;fontColor=#ffffff;" parent="WIyWlLk6GJQsqaUBKTNV-1" vertex="1">
          <mxGeometry x="485" y="-330" width="45" height="40" as="geometry" />
        </mxCell>
        <mxCell id="HzdkbjWVnRiLDoLoKct_-124" value="enem" style="rounded=0;whiteSpace=wrap;html=1;fillColor=#6d8764;strokeColor=#3A5431;fontColor=#ffffff;" parent="WIyWlLk6GJQsqaUBKTNV-1" vertex="1">
          <mxGeometry x="375" y="-320" width="45" height="40" as="geometry" />
        </mxCell>
        <mxCell id="HzdkbjWVnRiLDoLoKct_-125" value="bos" style="rounded=0;whiteSpace=wrap;html=1;fillColor=#e3c800;strokeColor=#B09500;fontColor=#000000;" parent="WIyWlLk6GJQsqaUBKTNV-1" vertex="1">
          <mxGeometry x="635" y="-298" width="45" height="40" as="geometry" />
        </mxCell>
        <mxCell id="HzdkbjWVnRiLDoLoKct_-126" value="obst" style="rounded=0;whiteSpace=wrap;html=1;fillColor=#647687;strokeColor=#314354;fontColor=#ffffff;" parent="WIyWlLk6GJQsqaUBKTNV-1" vertex="1">
          <mxGeometry x="570" y="-358" width="45" height="78" as="geometry" />
        </mxCell>
        <mxCell id="HzdkbjWVnRiLDoLoKct_-127" value="obst" style="rounded=0;whiteSpace=wrap;html=1;fillColor=#647687;strokeColor=#314354;fontColor=#ffffff;" parent="WIyWlLk6GJQsqaUBKTNV-1" vertex="1">
          <mxGeometry x="560" y="-228" width="45" height="30" as="geometry" />
        </mxCell>
        <mxCell id="HzdkbjWVnRiLDoLoKct_-128" value="obst" style="rounded=0;whiteSpace=wrap;html=1;fillColor=#647687;strokeColor=#314354;fontColor=#ffffff;" parent="WIyWlLk6GJQsqaUBKTNV-1" vertex="1">
          <mxGeometry x="430" y="-358" width="45" height="30" as="geometry" />
        </mxCell>
        <mxCell id="BhJBI_x_kJEaHvdFS2TZ-16" style="edgeStyle=orthogonalEdgeStyle;rounded=0;orthogonalLoop=1;jettySize=auto;html=1;exitX=0.5;exitY=0;exitDx=0;exitDy=0;" parent="WIyWlLk6GJQsqaUBKTNV-1" source="HzdkbjWVnRiLDoLoKct_-236" edge="1">
          <mxGeometry relative="1" as="geometry">
            <mxPoint x="-130" y="1090" as="targetPoint" />
          </mxGeometry>
        </mxCell>
        <mxCell id="HzdkbjWVnRiLDoLoKct_-236" value="bubble" style="swimlane;fontStyle=1;align=center;verticalAlign=top;childLayout=stackLayout;horizontal=1;startSize=26;horizontalStack=0;resizeParent=1;resizeParentMax=0;resizeLast=0;collapsible=1;marginBottom=0;whiteSpace=wrap;html=1;strokeColor=#60a917;" parent="WIyWlLk6GJQsqaUBKTNV-1" vertex="1">
          <mxGeometry x="-640" y="1200" width="160" height="164" as="geometry">
            <mxRectangle x="647.5" y="1250" width="130" height="40" as="alternateBounds" />
          </mxGeometry>
        </mxCell>
        <mxCell id="HzdkbjWVnRiLDoLoKct_-237" value="+ IMGs" style="text;strokeColor=#2D7600;fillColor=#60a917;align=left;verticalAlign=top;spacingLeft=4;spacingRight=4;overflow=hidden;rotatable=0;points=[[0,0.5],[1,0.5]];portConstraint=eastwest;whiteSpace=wrap;html=1;fontColor=#ffffff;" parent="HzdkbjWVnRiLDoLoKct_-236" vertex="1">
          <mxGeometry y="26" width="160" height="26" as="geometry" />
        </mxCell>
        <mxCell id="HzdkbjWVnRiLDoLoKct_-267" value="+ type" style="text;strokeColor=#2D7600;fillColor=#60a917;align=left;verticalAlign=top;spacingLeft=4;spacingRight=4;overflow=hidden;rotatable=0;points=[[0,0.5],[1,0.5]];portConstraint=eastwest;whiteSpace=wrap;html=1;fontColor=#ffffff;" parent="HzdkbjWVnRiLDoLoKct_-236" vertex="1">
          <mxGeometry y="52" width="160" height="26" as="geometry" />
        </mxCell>
        <mxCell id="HzdkbjWVnRiLDoLoKct_-240" value="" style="line;strokeWidth=1;fillColor=none;align=left;verticalAlign=middle;spacingTop=-1;spacingLeft=3;spacingRight=3;rotatable=0;labelPosition=right;points=[];portConstraint=eastwest;strokeColor=inherit;" parent="HzdkbjWVnRiLDoLoKct_-236" vertex="1">
          <mxGeometry y="78" width="160" height="8" as="geometry" />
        </mxCell>
        <mxCell id="HzdkbjWVnRiLDoLoKct_-241" value="+ constructor()" style="text;strokeColor=#2D7600;fillColor=#60a917;align=left;verticalAlign=top;spacingLeft=4;spacingRight=4;overflow=hidden;rotatable=0;points=[[0,0.5],[1,0.5]];portConstraint=eastwest;whiteSpace=wrap;html=1;fontColor=#ffffff;" parent="HzdkbjWVnRiLDoLoKct_-236" vertex="1">
          <mxGeometry y="86" width="160" height="26" as="geometry" />
        </mxCell>
        <mxCell id="9fKX-wjSNF27q1v6EJUF-40" value="+ move()" style="text;strokeColor=#2D7600;fillColor=#60a917;align=left;verticalAlign=top;spacingLeft=4;spacingRight=4;overflow=hidden;rotatable=0;points=[[0,0.5],[1,0.5]];portConstraint=eastwest;whiteSpace=wrap;html=1;fontColor=#ffffff;" parent="HzdkbjWVnRiLDoLoKct_-236" vertex="1">
          <mxGeometry y="112" width="160" height="26" as="geometry" />
        </mxCell>
        <mxCell id="9fKX-wjSNF27q1v6EJUF-41" value="+ setImgPath()" style="text;strokeColor=#2D7600;fillColor=#60a917;align=left;verticalAlign=top;spacingLeft=4;spacingRight=4;overflow=hidden;rotatable=0;points=[[0,0.5],[1,0.5]];portConstraint=eastwest;whiteSpace=wrap;html=1;fontColor=#ffffff;" parent="HzdkbjWVnRiLDoLoKct_-236" vertex="1">
          <mxGeometry y="138" width="160" height="26" as="geometry" />
        </mxCell>
        <mxCell id="7m6XIUOffLkH2ZnsS2VB-2" style="edgeStyle=orthogonalEdgeStyle;rounded=0;orthogonalLoop=1;jettySize=auto;html=1;exitX=0.5;exitY=0;exitDx=0;exitDy=0;entryX=0.5;entryY=1;entryDx=0;entryDy=0;" edge="1" parent="WIyWlLk6GJQsqaUBKTNV-1" source="HzdkbjWVnRiLDoLoKct_-252" target="HzdkbjWVnRiLDoLoKct_-25">
          <mxGeometry relative="1" as="geometry" />
        </mxCell>
        <mxCell id="HzdkbjWVnRiLDoLoKct_-252" value="coin" style="swimlane;fontStyle=1;align=center;verticalAlign=top;childLayout=stackLayout;horizontal=1;startSize=26;horizontalStack=0;resizeParent=1;resizeParentMax=0;resizeLast=0;collapsible=1;marginBottom=0;whiteSpace=wrap;html=1;" parent="WIyWlLk6GJQsqaUBKTNV-1" vertex="1">
          <mxGeometry x="545" y="880" width="160" height="112" as="geometry">
            <mxRectangle x="647.5" y="1250" width="130" height="40" as="alternateBounds" />
          </mxGeometry>
        </mxCell>
        <mxCell id="HzdkbjWVnRiLDoLoKct_-253" value="+state" style="text;strokeColor=none;fillColor=none;align=left;verticalAlign=top;spacingLeft=4;spacingRight=4;overflow=hidden;rotatable=0;points=[[0,0.5],[1,0.5]];portConstraint=eastwest;whiteSpace=wrap;html=1;" parent="HzdkbjWVnRiLDoLoKct_-252" vertex="1">
          <mxGeometry y="26" width="160" height="26" as="geometry" />
        </mxCell>
        <mxCell id="HzdkbjWVnRiLDoLoKct_-254" value="" style="line;strokeWidth=1;fillColor=none;align=left;verticalAlign=middle;spacingTop=-1;spacingLeft=3;spacingRight=3;rotatable=0;labelPosition=right;points=[];portConstraint=eastwest;strokeColor=inherit;" parent="HzdkbjWVnRiLDoLoKct_-252" vertex="1">
          <mxGeometry y="52" width="160" height="8" as="geometry" />
        </mxCell>
        <mxCell id="HzdkbjWVnRiLDoLoKct_-258" value="+ constructor()" style="text;strokeColor=none;fillColor=none;align=left;verticalAlign=top;spacingLeft=4;spacingRight=4;overflow=hidden;rotatable=0;points=[[0,0.5],[1,0.5]];portConstraint=eastwest;whiteSpace=wrap;html=1;" parent="HzdkbjWVnRiLDoLoKct_-252" vertex="1">
          <mxGeometry y="60" width="160" height="26" as="geometry" />
        </mxCell>
        <mxCell id="HzdkbjWVnRiLDoLoKct_-255" value="+ isColliding()" style="text;strokeColor=none;fillColor=none;align=left;verticalAlign=top;spacingLeft=4;spacingRight=4;overflow=hidden;rotatable=0;points=[[0,0.5],[1,0.5]];portConstraint=eastwest;whiteSpace=wrap;html=1;" parent="HzdkbjWVnRiLDoLoKct_-252" vertex="1">
          <mxGeometry y="86" width="160" height="26" as="geometry" />
        </mxCell>
        <mxCell id="HzdkbjWVnRiLDoLoKct_-269" value="" style="endArrow=classic;html=1;rounded=0;" parent="WIyWlLk6GJQsqaUBKTNV-1" edge="1">
          <mxGeometry width="50" height="50" relative="1" as="geometry">
            <mxPoint x="-293" y="-400" as="sourcePoint" />
            <mxPoint x="-293" y="-210" as="targetPoint" />
          </mxGeometry>
        </mxCell>
        <mxCell id="HzdkbjWVnRiLDoLoKct_-270" value="" style="endArrow=classic;html=1;rounded=0;" parent="WIyWlLk6GJQsqaUBKTNV-1" edge="1">
          <mxGeometry width="50" height="50" relative="1" as="geometry">
            <mxPoint x="-293" y="-400" as="sourcePoint" />
            <mxPoint x="-63" y="-400" as="targetPoint" />
          </mxGeometry>
        </mxCell>
        <mxCell id="HzdkbjWVnRiLDoLoKct_-271" value="visible cutout" style="rounded=0;whiteSpace=wrap;html=1;align=left;verticalAlign=top;" parent="WIyWlLk6GJQsqaUBKTNV-1" vertex="1">
          <mxGeometry x="-293" y="-400" width="140" height="158" as="geometry" />
        </mxCell>
        <mxCell id="HzdkbjWVnRiLDoLoKct_-273" value="0" style="text;html=1;strokeColor=none;fillColor=none;align=center;verticalAlign=middle;whiteSpace=wrap;rounded=0;" parent="WIyWlLk6GJQsqaUBKTNV-1" vertex="1">
          <mxGeometry x="-300" y="-410" width="18" height="20" as="geometry" />
        </mxCell>
        <mxCell id="HzdkbjWVnRiLDoLoKct_-275" value="obj" style="rounded=0;whiteSpace=wrap;html=1;fillColor=#e51400;strokeColor=#B20000;fontColor=#ffffff;" parent="WIyWlLk6GJQsqaUBKTNV-1" vertex="1">
          <mxGeometry x="-253" y="-320" width="45" height="40" as="geometry" />
        </mxCell>
        <mxCell id="HzdkbjWVnRiLDoLoKct_-276" value="" style="endArrow=none;dashed=1;html=1;dashPattern=1 3;strokeWidth=2;rounded=0;entryX=0;entryY=0;entryDx=0;entryDy=0;" parent="WIyWlLk6GJQsqaUBKTNV-1" target="HzdkbjWVnRiLDoLoKct_-275" edge="1">
          <mxGeometry width="50" height="50" relative="1" as="geometry">
            <mxPoint x="-293" y="-320" as="sourcePoint" />
            <mxPoint x="-243" y="-370" as="targetPoint" />
          </mxGeometry>
        </mxCell>
        <mxCell id="HzdkbjWVnRiLDoLoKct_-277" value="" style="endArrow=none;dashed=1;html=1;dashPattern=1 3;strokeWidth=2;rounded=0;entryX=0.287;entryY=0.001;entryDx=0;entryDy=0;entryPerimeter=0;" parent="WIyWlLk6GJQsqaUBKTNV-1" target="HzdkbjWVnRiLDoLoKct_-271" edge="1">
          <mxGeometry width="50" height="50" relative="1" as="geometry">
            <mxPoint x="-253" y="-320" as="sourcePoint" />
            <mxPoint x="-233" y="-340" as="targetPoint" />
          </mxGeometry>
        </mxCell>
        <mxCell id="HzdkbjWVnRiLDoLoKct_-278" value="width canvas" style="text;html=1;strokeColor=none;fillColor=none;align=center;verticalAlign=middle;whiteSpace=wrap;rounded=0;" parent="WIyWlLk6GJQsqaUBKTNV-1" vertex="1">
          <mxGeometry x="-263" y="-240" width="60" height="30" as="geometry" />
        </mxCell>
        <mxCell id="HzdkbjWVnRiLDoLoKct_-280" value="height canvas" style="text;html=1;strokeColor=none;fillColor=none;align=center;verticalAlign=middle;whiteSpace=wrap;rounded=0;" parent="WIyWlLk6GJQsqaUBKTNV-1" vertex="1">
          <mxGeometry x="-163" y="-334" width="60" height="30" as="geometry" />
        </mxCell>
        <mxCell id="HzdkbjWVnRiLDoLoKct_-282" value="offset" style="text;html=1;strokeColor=none;fillColor=none;align=center;verticalAlign=middle;whiteSpace=wrap;rounded=0;" parent="WIyWlLk6GJQsqaUBKTNV-1" vertex="1">
          <mxGeometry x="-370" y="-440" width="60" height="30" as="geometry" />
        </mxCell>
        <mxCell id="HzdkbjWVnRiLDoLoKct_-283" value="" style="endArrow=classic;startArrow=classic;html=1;rounded=0;" parent="WIyWlLk6GJQsqaUBKTNV-1" edge="1">
          <mxGeometry width="50" height="50" relative="1" as="geometry">
            <mxPoint x="-390" y="-415.76" as="sourcePoint" />
            <mxPoint x="-290" y="-416" as="targetPoint" />
          </mxGeometry>
        </mxCell>
        <mxCell id="HzdkbjWVnRiLDoLoKct_-284" value="y" style="text;html=1;strokeColor=none;fillColor=none;align=center;verticalAlign=middle;whiteSpace=wrap;rounded=0;" parent="WIyWlLk6GJQsqaUBKTNV-1" vertex="1">
          <mxGeometry x="-253" y="-370" width="23" height="18" as="geometry" />
        </mxCell>
        <mxCell id="HzdkbjWVnRiLDoLoKct_-285" value="x" style="text;html=1;strokeColor=none;fillColor=none;align=center;verticalAlign=middle;whiteSpace=wrap;rounded=0;" parent="WIyWlLk6GJQsqaUBKTNV-1" vertex="1">
          <mxGeometry x="-286" y="-322" width="23" height="18" as="geometry" />
        </mxCell>
        <mxCell id="HzdkbjWVnRiLDoLoKct_-286" style="edgeStyle=orthogonalEdgeStyle;rounded=0;orthogonalLoop=1;jettySize=auto;html=1;exitX=0.5;exitY=1;exitDx=0;exitDy=0;" parent="WIyWlLk6GJQsqaUBKTNV-1" source="HzdkbjWVnRiLDoLoKct_-284" target="HzdkbjWVnRiLDoLoKct_-284" edge="1">
          <mxGeometry relative="1" as="geometry" />
        </mxCell>
        <mxCell id="HzdkbjWVnRiLDoLoKct_-287" value="&lt;div&gt;Alles nach Background 0 ausrichten (x,y)&lt;/div&gt;&lt;div&gt;Bei Zeichnung Kameraoffset berücksichtigen&lt;/div&gt;&lt;div&gt;Wenn Ende oder Anfang der Map erreicht ist, Kamera Offset konstant halten und nur noch Objekt Koordinaten verschieben&lt;/div&gt;&lt;div&gt;Wenn Character nach links läuft Kameraoffset um Kamerabreite verschieben&lt;br&gt;&lt;/div&gt;&lt;div&gt;&lt;br&gt;&lt;/div&gt;" style="text;html=1;strokeColor=none;fillColor=none;align=left;verticalAlign=middle;whiteSpace=wrap;rounded=0;" parent="WIyWlLk6GJQsqaUBKTNV-1" vertex="1">
          <mxGeometry x="-459" y="-500" width="700" height="70" as="geometry" />
        </mxCell>
        <mxCell id="vhZRwU5GHjn1_qx9XKm6-16" style="edgeStyle=orthogonalEdgeStyle;rounded=0;orthogonalLoop=1;jettySize=auto;html=1;exitX=0.5;exitY=0;exitDx=0;exitDy=0;startArrow=classic;startFill=1;endArrow=none;endFill=0;" parent="WIyWlLk6GJQsqaUBKTNV-1" source="vhZRwU5GHjn1_qx9XKm6-1" edge="1">
          <mxGeometry relative="1" as="geometry">
            <mxPoint x="191" y="230" as="targetPoint" />
          </mxGeometry>
        </mxCell>
        <mxCell id="vhZRwU5GHjn1_qx9XKm6-1" value="animatedObject" style="swimlane;fontStyle=1;align=center;verticalAlign=top;childLayout=stackLayout;horizontal=1;startSize=26;horizontalStack=0;resizeParent=1;resizeParentMax=0;resizeLast=0;collapsible=1;marginBottom=0;whiteSpace=wrap;html=1;strokeColor=#60a917;" parent="WIyWlLk6GJQsqaUBKTNV-1" vertex="1">
          <mxGeometry x="110" y="310" width="160" height="190" as="geometry">
            <mxRectangle x="110" y="480" width="130" height="40" as="alternateBounds" />
          </mxGeometry>
        </mxCell>
        <mxCell id="vhZRwU5GHjn1_qx9XKm6-2" value="+ imgCache" style="text;strokeColor=none;fillColor=none;align=left;verticalAlign=top;spacingLeft=4;spacingRight=4;overflow=hidden;rotatable=0;points=[[0,0.5],[1,0.5]];portConstraint=eastwest;whiteSpace=wrap;html=1;" parent="vhZRwU5GHjn1_qx9XKm6-1" vertex="1">
          <mxGeometry y="26" width="160" height="26" as="geometry" />
        </mxCell>
        <mxCell id="vhZRwU5GHjn1_qx9XKm6-3" value="+ frameRate" style="text;strokeColor=none;fillColor=none;align=left;verticalAlign=top;spacingLeft=4;spacingRight=4;overflow=hidden;rotatable=0;points=[[0,0.5],[1,0.5]];portConstraint=eastwest;whiteSpace=wrap;html=1;" parent="vhZRwU5GHjn1_qx9XKm6-1" vertex="1">
          <mxGeometry y="52" width="160" height="26" as="geometry" />
        </mxCell>
        <mxCell id="vhZRwU5GHjn1_qx9XKm6-4" value="+&amp;nbsp; animations" style="text;strokeColor=none;fillColor=none;align=left;verticalAlign=top;spacingLeft=4;spacingRight=4;overflow=hidden;rotatable=0;points=[[0,0.5],[1,0.5]];portConstraint=eastwest;whiteSpace=wrap;html=1;" parent="vhZRwU5GHjn1_qx9XKm6-1" vertex="1">
          <mxGeometry y="78" width="160" height="26" as="geometry" />
        </mxCell>
        <mxCell id="vhZRwU5GHjn1_qx9XKm6-5" value="" style="line;strokeWidth=1;fillColor=none;align=left;verticalAlign=middle;spacingTop=-1;spacingLeft=3;spacingRight=3;rotatable=0;labelPosition=right;points=[];portConstraint=eastwest;strokeColor=inherit;" parent="vhZRwU5GHjn1_qx9XKm6-1" vertex="1">
          <mxGeometry y="104" width="160" height="8" as="geometry" />
        </mxCell>
        <mxCell id="vhZRwU5GHjn1_qx9XKm6-6" value="+ constructor()" style="text;strokeColor=#2D7600;fillColor=#60a917;align=left;verticalAlign=top;spacingLeft=4;spacingRight=4;overflow=hidden;rotatable=0;points=[[0,0.5],[1,0.5]];portConstraint=eastwest;whiteSpace=wrap;html=1;fontColor=#ffffff;" parent="vhZRwU5GHjn1_qx9XKm6-1" vertex="1">
          <mxGeometry y="112" width="160" height="26" as="geometry" />
        </mxCell>
        <mxCell id="vhZRwU5GHjn1_qx9XKm6-7" value="+ fillImgCache(imgPaths)" style="text;strokeColor=none;fillColor=none;align=left;verticalAlign=top;spacingLeft=4;spacingRight=4;overflow=hidden;rotatable=0;points=[[0,0.5],[1,0.5]];portConstraint=eastwest;whiteSpace=wrap;html=1;" parent="vhZRwU5GHjn1_qx9XKm6-1" vertex="1">
          <mxGeometry y="138" width="160" height="26" as="geometry" />
        </mxCell>
        <mxCell id="vhZRwU5GHjn1_qx9XKm6-8" value="+ animate(imgPaths)" style="text;strokeColor=none;fillColor=none;align=left;verticalAlign=top;spacingLeft=4;spacingRight=4;overflow=hidden;rotatable=0;points=[[0,0.5],[1,0.5]];portConstraint=eastwest;whiteSpace=wrap;html=1;" parent="vhZRwU5GHjn1_qx9XKm6-1" vertex="1">
          <mxGeometry y="164" width="160" height="26" as="geometry" />
        </mxCell>
        <mxCell id="7m6XIUOffLkH2ZnsS2VB-3" style="edgeStyle=orthogonalEdgeStyle;rounded=0;orthogonalLoop=1;jettySize=auto;html=1;exitX=0.5;exitY=0;exitDx=0;exitDy=0;" edge="1" parent="WIyWlLk6GJQsqaUBKTNV-1" source="vhZRwU5GHjn1_qx9XKm6-9">
          <mxGeometry relative="1" as="geometry">
            <mxPoint x="190" y="770" as="targetPoint" />
            <Array as="points">
              <mxPoint x="845" y="820" />
              <mxPoint x="190" y="820" />
            </Array>
          </mxGeometry>
        </mxCell>
        <mxCell id="vhZRwU5GHjn1_qx9XKm6-9" value="poison" style="swimlane;fontStyle=1;align=center;verticalAlign=top;childLayout=stackLayout;horizontal=1;startSize=26;horizontalStack=0;resizeParent=1;resizeParentMax=0;resizeLast=0;collapsible=1;marginBottom=0;whiteSpace=wrap;html=1;" parent="WIyWlLk6GJQsqaUBKTNV-1" vertex="1">
          <mxGeometry x="765" y="880" width="160" height="112" as="geometry">
            <mxRectangle x="647.5" y="1250" width="130" height="40" as="alternateBounds" />
          </mxGeometry>
        </mxCell>
        <mxCell id="vhZRwU5GHjn1_qx9XKm6-10" value="+state" style="text;strokeColor=none;fillColor=none;align=left;verticalAlign=top;spacingLeft=4;spacingRight=4;overflow=hidden;rotatable=0;points=[[0,0.5],[1,0.5]];portConstraint=eastwest;whiteSpace=wrap;html=1;" parent="vhZRwU5GHjn1_qx9XKm6-9" vertex="1">
          <mxGeometry y="26" width="160" height="26" as="geometry" />
        </mxCell>
        <mxCell id="vhZRwU5GHjn1_qx9XKm6-11" value="" style="line;strokeWidth=1;fillColor=none;align=left;verticalAlign=middle;spacingTop=-1;spacingLeft=3;spacingRight=3;rotatable=0;labelPosition=right;points=[];portConstraint=eastwest;strokeColor=inherit;" parent="vhZRwU5GHjn1_qx9XKm6-9" vertex="1">
          <mxGeometry y="52" width="160" height="8" as="geometry" />
        </mxCell>
        <mxCell id="vhZRwU5GHjn1_qx9XKm6-12" value="+ constructor()" style="text;strokeColor=none;fillColor=none;align=left;verticalAlign=top;spacingLeft=4;spacingRight=4;overflow=hidden;rotatable=0;points=[[0,0.5],[1,0.5]];portConstraint=eastwest;whiteSpace=wrap;html=1;" parent="vhZRwU5GHjn1_qx9XKm6-9" vertex="1">
          <mxGeometry y="60" width="160" height="26" as="geometry" />
        </mxCell>
        <mxCell id="vhZRwU5GHjn1_qx9XKm6-13" value="+ isColliding()" style="text;strokeColor=none;fillColor=none;align=left;verticalAlign=top;spacingLeft=4;spacingRight=4;overflow=hidden;rotatable=0;points=[[0,0.5],[1,0.5]];portConstraint=eastwest;whiteSpace=wrap;html=1;" parent="vhZRwU5GHjn1_qx9XKm6-9" vertex="1">
          <mxGeometry y="86" width="160" height="26" as="geometry" />
        </mxCell>
        <mxCell id="9fKX-wjSNF27q1v6EJUF-29" value="Ideen Spiel:&lt;br&gt;- Endboss:&amp;nbsp;&lt;br&gt;&lt;span style=&quot;white-space: pre;&quot;&gt; &lt;span style=&quot;white-space: pre;&quot;&gt; &lt;/span&gt;&lt;/span&gt;- Attacke durch vorrauschen&amp;nbsp;&lt;br&gt;&lt;span style=&quot;white-space: pre;&quot;&gt; &lt;span style=&quot;white-space: pre;&quot;&gt; &lt;/span&gt;&lt;/span&gt;- Ausweichen der Buble durch Erkennungsradius&lt;br&gt;&lt;span style=&quot;white-space: pre;&quot;&gt; &lt;/span&gt;- Slap kann von hinten getroffen werden&lt;br&gt;&amp;nbsp;&lt;span style=&quot;white-space: pre;&quot;&gt; &lt;/span&gt;-&amp;nbsp;Weg zurück sperren&lt;br&gt;&lt;span style=&quot;white-space: pre;&quot;&gt; &lt;span style=&quot;white-space: pre;&quot;&gt; &lt;/span&gt;&lt;/span&gt;- großer Jellyfish für ein 2tes Level&lt;br&gt;- JellyFish&lt;br&gt;&lt;span style=&quot;white-space: pre;&quot;&gt; &lt;span style=&quot;white-space: pre;&quot;&gt; &lt;/span&gt;- 2 type in Object definieren(type = super)&lt;br&gt;&lt;/span&gt;&lt;span style=&quot;white-space: pre;&quot;&gt; &lt;/span&gt;- type= super: Verfolgen bis auf einen Abstand und schießen von gifigen Bubbles auf &lt;span style=&quot;white-space: pre;&quot;&gt; &lt;/span&gt;&lt;span style=&quot;white-space: pre;&quot;&gt; &lt;/span&gt;&lt;span style=&quot;white-space: pre;&quot;&gt; &lt;/span&gt;&lt;span style=&quot;white-space: pre;&quot;&gt; &lt;/span&gt;Character Zentrum&lt;br&gt;&lt;span style=&quot;white-space: pre;&quot;&gt; &lt;/span&gt;- Wenn kein Ziel detektiert ann Barrier abprallen sonst barrier durchstoßen&lt;br&gt;- Pufferfish&lt;br&gt;&lt;span style=&quot;white-space: pre;&quot;&gt; &lt;/span&gt;- kurzzeitig schneller machen&lt;br&gt;- Characer&lt;br&gt;&lt;span style=&quot;white-space: pre;&quot;&gt;&lt;span style=&quot;white-space: pre;&quot;&gt; &lt;/span&gt; &lt;/span&gt;- Poison Bubble schneller als normale + mehr schaden&lt;br&gt;&lt;span style=&quot;white-space: pre;&quot;&gt; &lt;span style=&quot;white-space: pre;&quot;&gt; &lt;/span&gt;&lt;/span&gt;-&amp;nbsp;normale Bubble aufladen nach Verwendung mit Anzeige&lt;br&gt;- Spiel&lt;br&gt;" style="text;html=1;strokeColor=none;fillColor=none;align=left;verticalAlign=top;whiteSpace=wrap;rounded=0;" parent="WIyWlLk6GJQsqaUBKTNV-1" vertex="1">
          <mxGeometry x="820" y="-520" width="505" height="330" as="geometry" />
        </mxCell>
        <mxCell id="BhJBI_x_kJEaHvdFS2TZ-11" style="edgeStyle=orthogonalEdgeStyle;rounded=0;orthogonalLoop=1;jettySize=auto;html=1;exitX=0.5;exitY=0;exitDx=0;exitDy=0;entryX=0.5;entryY=1;entryDx=0;entryDy=0;" parent="WIyWlLk6GJQsqaUBKTNV-1" source="BhJBI_x_kJEaHvdFS2TZ-0" target="HzdkbjWVnRiLDoLoKct_-25" edge="1">
          <mxGeometry relative="1" as="geometry" />
        </mxCell>
        <mxCell id="BhJBI_x_kJEaHvdFS2TZ-0" value="fightableObject" style="swimlane;fontStyle=1;align=center;verticalAlign=top;childLayout=stackLayout;horizontal=1;startSize=26;horizontalStack=0;resizeParent=1;resizeParentMax=0;resizeLast=0;collapsible=1;marginBottom=0;whiteSpace=wrap;html=1;strokeColor=#60a917;" parent="WIyWlLk6GJQsqaUBKTNV-1" vertex="1">
          <mxGeometry x="-213" y="849" width="160" height="242" as="geometry" />
        </mxCell>
        <mxCell id="BhJBI_x_kJEaHvdFS2TZ-1" value="+ health" style="text;strokeColor=#2D7600;fillColor=#60a917;align=left;verticalAlign=top;spacingLeft=4;spacingRight=4;overflow=hidden;rotatable=0;points=[[0,0.5],[1,0.5]];portConstraint=eastwest;whiteSpace=wrap;html=1;fontColor=#ffffff;" parent="BhJBI_x_kJEaHvdFS2TZ-0" vertex="1">
          <mxGeometry y="26" width="160" height="26" as="geometry" />
        </mxCell>
        <mxCell id="BhJBI_x_kJEaHvdFS2TZ-4" value="+ damage" style="text;strokeColor=#2D7600;fillColor=#60a917;align=left;verticalAlign=top;spacingLeft=4;spacingRight=4;overflow=hidden;rotatable=0;points=[[0,0.5],[1,0.5]];portConstraint=eastwest;whiteSpace=wrap;html=1;fontColor=#ffffff;" parent="BhJBI_x_kJEaHvdFS2TZ-0" vertex="1">
          <mxGeometry y="52" width="160" height="26" as="geometry" />
        </mxCell>
        <mxCell id="BhJBI_x_kJEaHvdFS2TZ-5" value="+ boxes" style="text;strokeColor=#2D7600;fillColor=#60a917;align=left;verticalAlign=top;spacingLeft=4;spacingRight=4;overflow=hidden;rotatable=0;points=[[0,0.5],[1,0.5]];portConstraint=eastwest;whiteSpace=wrap;html=1;fontColor=#ffffff;" parent="BhJBI_x_kJEaHvdFS2TZ-0" vertex="1">
          <mxGeometry y="78" width="160" height="26" as="geometry" />
        </mxCell>
        <mxCell id="BhJBI_x_kJEaHvdFS2TZ-21" value="+ state" style="text;strokeColor=#2D7600;fillColor=#60a917;align=left;verticalAlign=top;spacingLeft=4;spacingRight=4;overflow=hidden;rotatable=0;points=[[0,0.5],[1,0.5]];portConstraint=eastwest;whiteSpace=wrap;html=1;fontColor=#ffffff;" parent="BhJBI_x_kJEaHvdFS2TZ-0" vertex="1">
          <mxGeometry y="104" width="160" height="26" as="geometry" />
        </mxCell>
        <mxCell id="BhJBI_x_kJEaHvdFS2TZ-2" value="" style="line;strokeWidth=1;fillColor=none;align=left;verticalAlign=middle;spacingTop=-1;spacingLeft=3;spacingRight=3;rotatable=0;labelPosition=right;points=[];portConstraint=eastwest;strokeColor=inherit;" parent="BhJBI_x_kJEaHvdFS2TZ-0" vertex="1">
          <mxGeometry y="130" width="160" height="8" as="geometry" />
        </mxCell>
        <mxCell id="BhJBI_x_kJEaHvdFS2TZ-3" value="+ constructor" style="text;strokeColor=#2D7600;fillColor=#60a917;align=left;verticalAlign=top;spacingLeft=4;spacingRight=4;overflow=hidden;rotatable=0;points=[[0,0.5],[1,0.5]];portConstraint=eastwest;whiteSpace=wrap;html=1;fontColor=#ffffff;" parent="BhJBI_x_kJEaHvdFS2TZ-0" vertex="1">
          <mxGeometry y="138" width="160" height="26" as="geometry" />
        </mxCell>
        <mxCell id="BhJBI_x_kJEaHvdFS2TZ-6" value="+ isColliding()" style="text;strokeColor=#2D7600;fillColor=#60a917;align=left;verticalAlign=top;spacingLeft=4;spacingRight=4;overflow=hidden;rotatable=0;points=[[0,0.5],[1,0.5]];portConstraint=eastwest;whiteSpace=wrap;html=1;fontColor=#ffffff;" parent="BhJBI_x_kJEaHvdFS2TZ-0" vertex="1">
          <mxGeometry y="164" width="160" height="26" as="geometry" />
        </mxCell>
        <mxCell id="BhJBI_x_kJEaHvdFS2TZ-7" value="+ isDead()" style="text;strokeColor=#2D7600;fillColor=#60a917;align=left;verticalAlign=top;spacingLeft=4;spacingRight=4;overflow=hidden;rotatable=0;points=[[0,0.5],[1,0.5]];portConstraint=eastwest;whiteSpace=wrap;html=1;fontColor=#ffffff;" parent="BhJBI_x_kJEaHvdFS2TZ-0" vertex="1">
          <mxGeometry y="190" width="160" height="26" as="geometry" />
        </mxCell>
        <mxCell id="BhJBI_x_kJEaHvdFS2TZ-8" value="+ isHit()" style="text;strokeColor=#2D7600;fillColor=#60a917;align=left;verticalAlign=top;spacingLeft=4;spacingRight=4;overflow=hidden;rotatable=0;points=[[0,0.5],[1,0.5]];portConstraint=eastwest;whiteSpace=wrap;html=1;fontColor=#ffffff;" parent="BhJBI_x_kJEaHvdFS2TZ-0" vertex="1">
          <mxGeometry y="216" width="160" height="26" as="geometry" />
        </mxCell>
        <mxCell id="ZFUEVoaZ32UGvPsVa2lw-0" value="" style="shape=table;startSize=0;container=1;collapsible=0;childLayout=tableLayout;" parent="WIyWlLk6GJQsqaUBKTNV-1" vertex="1">
          <mxGeometry x="541" y="1220" width="500" height="280" as="geometry" />
        </mxCell>
        <mxCell id="ZFUEVoaZ32UGvPsVa2lw-1" value="" style="shape=tableRow;horizontal=0;startSize=0;swimlaneHead=0;swimlaneBody=0;strokeColor=inherit;top=0;left=0;bottom=0;right=0;collapsible=0;dropTarget=0;fillColor=none;points=[[0,0.5],[1,0.5]];portConstraint=eastwest;" parent="ZFUEVoaZ32UGvPsVa2lw-0" vertex="1">
          <mxGeometry width="500" height="40" as="geometry" />
        </mxCell>
        <mxCell id="ZFUEVoaZ32UGvPsVa2lw-2" value="State" style="shape=partialRectangle;html=1;whiteSpace=wrap;connectable=0;strokeColor=inherit;overflow=hidden;fillColor=none;top=0;left=0;bottom=0;right=0;pointerEvents=1;" parent="ZFUEVoaZ32UGvPsVa2lw-1" vertex="1">
          <mxGeometry width="83" height="40" as="geometry">
            <mxRectangle width="83" height="40" as="alternateBounds" />
          </mxGeometry>
        </mxCell>
        <mxCell id="ZFUEVoaZ32UGvPsVa2lw-3" value="Chatacter" style="shape=partialRectangle;html=1;whiteSpace=wrap;connectable=0;strokeColor=inherit;overflow=hidden;fillColor=none;top=0;left=0;bottom=0;right=0;pointerEvents=1;" parent="ZFUEVoaZ32UGvPsVa2lw-1" vertex="1">
          <mxGeometry x="83" width="87" height="40" as="geometry">
            <mxRectangle width="87" height="40" as="alternateBounds" />
          </mxGeometry>
        </mxCell>
        <mxCell id="ZFUEVoaZ32UGvPsVa2lw-4" value="Pufferfish" style="shape=partialRectangle;html=1;whiteSpace=wrap;connectable=0;strokeColor=inherit;overflow=hidden;fillColor=none;top=0;left=0;bottom=0;right=0;pointerEvents=1;" parent="ZFUEVoaZ32UGvPsVa2lw-1" vertex="1">
          <mxGeometry x="170" width="80" height="40" as="geometry">
            <mxRectangle width="80" height="40" as="alternateBounds" />
          </mxGeometry>
        </mxCell>
        <mxCell id="ZFUEVoaZ32UGvPsVa2lw-5" value="Jellyfish" style="shape=partialRectangle;html=1;whiteSpace=wrap;connectable=0;strokeColor=inherit;overflow=hidden;fillColor=none;top=0;left=0;bottom=0;right=0;pointerEvents=1;" parent="ZFUEVoaZ32UGvPsVa2lw-1" vertex="1">
          <mxGeometry x="250" width="83" height="40" as="geometry">
            <mxRectangle width="83" height="40" as="alternateBounds" />
          </mxGeometry>
        </mxCell>
        <mxCell id="ZFUEVoaZ32UGvPsVa2lw-6" value="Endbos" style="shape=partialRectangle;html=1;whiteSpace=wrap;connectable=0;strokeColor=inherit;overflow=hidden;fillColor=none;top=0;left=0;bottom=0;right=0;pointerEvents=1;" parent="ZFUEVoaZ32UGvPsVa2lw-1" vertex="1">
          <mxGeometry x="333" width="84" height="40" as="geometry">
            <mxRectangle width="84" height="40" as="alternateBounds" />
          </mxGeometry>
        </mxCell>
        <mxCell id="ZFUEVoaZ32UGvPsVa2lw-7" value="bubble" style="shape=partialRectangle;html=1;whiteSpace=wrap;connectable=0;strokeColor=inherit;overflow=hidden;fillColor=none;top=0;left=0;bottom=0;right=0;pointerEvents=1;" parent="ZFUEVoaZ32UGvPsVa2lw-1" vertex="1">
          <mxGeometry x="417" width="83" height="40" as="geometry">
            <mxRectangle width="83" height="40" as="alternateBounds" />
          </mxGeometry>
        </mxCell>
        <mxCell id="ZFUEVoaZ32UGvPsVa2lw-8" value="" style="shape=tableRow;horizontal=0;startSize=0;swimlaneHead=0;swimlaneBody=0;strokeColor=inherit;top=0;left=0;bottom=0;right=0;collapsible=0;dropTarget=0;fillColor=none;points=[[0,0.5],[1,0.5]];portConstraint=eastwest;" parent="ZFUEVoaZ32UGvPsVa2lw-0" vertex="1">
          <mxGeometry y="40" width="500" height="40" as="geometry" />
        </mxCell>
        <mxCell id="ZFUEVoaZ32UGvPsVa2lw-9" value="IDLE" style="shape=partialRectangle;html=1;whiteSpace=wrap;connectable=0;strokeColor=inherit;overflow=hidden;fillColor=none;top=0;left=0;bottom=0;right=0;pointerEvents=1;" parent="ZFUEVoaZ32UGvPsVa2lw-8" vertex="1">
          <mxGeometry width="83" height="40" as="geometry">
            <mxRectangle width="83" height="40" as="alternateBounds" />
          </mxGeometry>
        </mxCell>
        <mxCell id="ZFUEVoaZ32UGvPsVa2lw-10" value="X" style="shape=partialRectangle;html=1;whiteSpace=wrap;connectable=0;strokeColor=inherit;overflow=hidden;fillColor=none;top=0;left=0;bottom=0;right=0;pointerEvents=1;" parent="ZFUEVoaZ32UGvPsVa2lw-8" vertex="1">
          <mxGeometry x="83" width="87" height="40" as="geometry">
            <mxRectangle width="87" height="40" as="alternateBounds" />
          </mxGeometry>
        </mxCell>
        <mxCell id="ZFUEVoaZ32UGvPsVa2lw-11" value="X" style="shape=partialRectangle;html=1;whiteSpace=wrap;connectable=0;strokeColor=inherit;overflow=hidden;fillColor=none;top=0;left=0;bottom=0;right=0;pointerEvents=1;" parent="ZFUEVoaZ32UGvPsVa2lw-8" vertex="1">
          <mxGeometry x="170" width="80" height="40" as="geometry">
            <mxRectangle width="80" height="40" as="alternateBounds" />
          </mxGeometry>
        </mxCell>
        <mxCell id="ZFUEVoaZ32UGvPsVa2lw-12" value="X" style="shape=partialRectangle;html=1;whiteSpace=wrap;connectable=0;strokeColor=inherit;overflow=hidden;fillColor=none;top=0;left=0;bottom=0;right=0;pointerEvents=1;" parent="ZFUEVoaZ32UGvPsVa2lw-8" vertex="1">
          <mxGeometry x="250" width="83" height="40" as="geometry">
            <mxRectangle width="83" height="40" as="alternateBounds" />
          </mxGeometry>
        </mxCell>
        <mxCell id="ZFUEVoaZ32UGvPsVa2lw-13" value="X" style="shape=partialRectangle;html=1;whiteSpace=wrap;connectable=0;strokeColor=inherit;overflow=hidden;fillColor=none;top=0;left=0;bottom=0;right=0;pointerEvents=1;" parent="ZFUEVoaZ32UGvPsVa2lw-8" vertex="1">
          <mxGeometry x="333" width="84" height="40" as="geometry">
            <mxRectangle width="84" height="40" as="alternateBounds" />
          </mxGeometry>
        </mxCell>
        <mxCell id="ZFUEVoaZ32UGvPsVa2lw-14" value="" style="shape=partialRectangle;html=1;whiteSpace=wrap;connectable=0;strokeColor=inherit;overflow=hidden;fillColor=none;top=0;left=0;bottom=0;right=0;pointerEvents=1;" parent="ZFUEVoaZ32UGvPsVa2lw-8" vertex="1">
          <mxGeometry x="417" width="83" height="40" as="geometry">
            <mxRectangle width="83" height="40" as="alternateBounds" />
          </mxGeometry>
        </mxCell>
        <mxCell id="ZFUEVoaZ32UGvPsVa2lw-15" value="" style="shape=tableRow;horizontal=0;startSize=0;swimlaneHead=0;swimlaneBody=0;strokeColor=inherit;top=0;left=0;bottom=0;right=0;collapsible=0;dropTarget=0;fillColor=none;points=[[0,0.5],[1,0.5]];portConstraint=eastwest;" parent="ZFUEVoaZ32UGvPsVa2lw-0" vertex="1">
          <mxGeometry y="80" width="500" height="40" as="geometry" />
        </mxCell>
        <mxCell id="ZFUEVoaZ32UGvPsVa2lw-16" value="MOVE" style="shape=partialRectangle;html=1;whiteSpace=wrap;connectable=0;strokeColor=inherit;overflow=hidden;fillColor=none;top=0;left=0;bottom=0;right=0;pointerEvents=1;" parent="ZFUEVoaZ32UGvPsVa2lw-15" vertex="1">
          <mxGeometry width="83" height="40" as="geometry">
            <mxRectangle width="83" height="40" as="alternateBounds" />
          </mxGeometry>
        </mxCell>
        <mxCell id="ZFUEVoaZ32UGvPsVa2lw-17" value="X" style="shape=partialRectangle;html=1;whiteSpace=wrap;connectable=0;strokeColor=inherit;overflow=hidden;fillColor=none;top=0;left=0;bottom=0;right=0;pointerEvents=1;" parent="ZFUEVoaZ32UGvPsVa2lw-15" vertex="1">
          <mxGeometry x="83" width="87" height="40" as="geometry">
            <mxRectangle width="87" height="40" as="alternateBounds" />
          </mxGeometry>
        </mxCell>
        <mxCell id="ZFUEVoaZ32UGvPsVa2lw-18" value="X" style="shape=partialRectangle;html=1;whiteSpace=wrap;connectable=0;strokeColor=inherit;overflow=hidden;fillColor=none;top=0;left=0;bottom=0;right=0;pointerEvents=1;" parent="ZFUEVoaZ32UGvPsVa2lw-15" vertex="1">
          <mxGeometry x="170" width="80" height="40" as="geometry">
            <mxRectangle width="80" height="40" as="alternateBounds" />
          </mxGeometry>
        </mxCell>
        <mxCell id="ZFUEVoaZ32UGvPsVa2lw-19" value="X" style="shape=partialRectangle;html=1;whiteSpace=wrap;connectable=0;strokeColor=inherit;overflow=hidden;fillColor=none;top=0;left=0;bottom=0;right=0;pointerEvents=1;" parent="ZFUEVoaZ32UGvPsVa2lw-15" vertex="1">
          <mxGeometry x="250" width="83" height="40" as="geometry">
            <mxRectangle width="83" height="40" as="alternateBounds" />
          </mxGeometry>
        </mxCell>
        <mxCell id="ZFUEVoaZ32UGvPsVa2lw-20" value="X" style="shape=partialRectangle;html=1;whiteSpace=wrap;connectable=0;strokeColor=inherit;overflow=hidden;fillColor=none;top=0;left=0;bottom=0;right=0;pointerEvents=1;" parent="ZFUEVoaZ32UGvPsVa2lw-15" vertex="1">
          <mxGeometry x="333" width="84" height="40" as="geometry">
            <mxRectangle width="84" height="40" as="alternateBounds" />
          </mxGeometry>
        </mxCell>
        <mxCell id="ZFUEVoaZ32UGvPsVa2lw-21" value="X" style="shape=partialRectangle;html=1;whiteSpace=wrap;connectable=0;strokeColor=inherit;overflow=hidden;fillColor=none;top=0;left=0;bottom=0;right=0;pointerEvents=1;" parent="ZFUEVoaZ32UGvPsVa2lw-15" vertex="1">
          <mxGeometry x="417" width="83" height="40" as="geometry">
            <mxRectangle width="83" height="40" as="alternateBounds" />
          </mxGeometry>
        </mxCell>
        <mxCell id="ZFUEVoaZ32UGvPsVa2lw-29" value="" style="shape=tableRow;horizontal=0;startSize=0;swimlaneHead=0;swimlaneBody=0;strokeColor=inherit;top=0;left=0;bottom=0;right=0;collapsible=0;dropTarget=0;fillColor=none;points=[[0,0.5],[1,0.5]];portConstraint=eastwest;" parent="ZFUEVoaZ32UGvPsVa2lw-0" vertex="1">
          <mxGeometry y="120" width="500" height="40" as="geometry" />
        </mxCell>
        <mxCell id="ZFUEVoaZ32UGvPsVa2lw-30" value="ATTACK" style="shape=partialRectangle;html=1;whiteSpace=wrap;connectable=0;strokeColor=inherit;overflow=hidden;fillColor=none;top=0;left=0;bottom=0;right=0;pointerEvents=1;" parent="ZFUEVoaZ32UGvPsVa2lw-29" vertex="1">
          <mxGeometry width="83" height="40" as="geometry">
            <mxRectangle width="83" height="40" as="alternateBounds" />
          </mxGeometry>
        </mxCell>
        <mxCell id="ZFUEVoaZ32UGvPsVa2lw-31" value="X" style="shape=partialRectangle;html=1;whiteSpace=wrap;connectable=0;strokeColor=inherit;overflow=hidden;fillColor=none;top=0;left=0;bottom=0;right=0;pointerEvents=1;" parent="ZFUEVoaZ32UGvPsVa2lw-29" vertex="1">
          <mxGeometry x="83" width="87" height="40" as="geometry">
            <mxRectangle width="87" height="40" as="alternateBounds" />
          </mxGeometry>
        </mxCell>
        <mxCell id="ZFUEVoaZ32UGvPsVa2lw-32" value="" style="shape=partialRectangle;html=1;whiteSpace=wrap;connectable=0;strokeColor=inherit;overflow=hidden;fillColor=none;top=0;left=0;bottom=0;right=0;pointerEvents=1;" parent="ZFUEVoaZ32UGvPsVa2lw-29" vertex="1">
          <mxGeometry x="170" width="80" height="40" as="geometry">
            <mxRectangle width="80" height="40" as="alternateBounds" />
          </mxGeometry>
        </mxCell>
        <mxCell id="ZFUEVoaZ32UGvPsVa2lw-33" value="X" style="shape=partialRectangle;html=1;whiteSpace=wrap;connectable=0;strokeColor=inherit;overflow=hidden;fillColor=none;top=0;left=0;bottom=0;right=0;pointerEvents=1;" parent="ZFUEVoaZ32UGvPsVa2lw-29" vertex="1">
          <mxGeometry x="250" width="83" height="40" as="geometry">
            <mxRectangle width="83" height="40" as="alternateBounds" />
          </mxGeometry>
        </mxCell>
        <mxCell id="ZFUEVoaZ32UGvPsVa2lw-34" value="X" style="shape=partialRectangle;html=1;whiteSpace=wrap;connectable=0;strokeColor=inherit;overflow=hidden;fillColor=none;top=0;left=0;bottom=0;right=0;pointerEvents=1;" parent="ZFUEVoaZ32UGvPsVa2lw-29" vertex="1">
          <mxGeometry x="333" width="84" height="40" as="geometry">
            <mxRectangle width="84" height="40" as="alternateBounds" />
          </mxGeometry>
        </mxCell>
        <mxCell id="ZFUEVoaZ32UGvPsVa2lw-35" value="" style="shape=partialRectangle;html=1;whiteSpace=wrap;connectable=0;strokeColor=inherit;overflow=hidden;fillColor=none;top=0;left=0;bottom=0;right=0;pointerEvents=1;" parent="ZFUEVoaZ32UGvPsVa2lw-29" vertex="1">
          <mxGeometry x="417" width="83" height="40" as="geometry">
            <mxRectangle width="83" height="40" as="alternateBounds" />
          </mxGeometry>
        </mxCell>
        <mxCell id="ZFUEVoaZ32UGvPsVa2lw-37" value="" style="shape=tableRow;horizontal=0;startSize=0;swimlaneHead=0;swimlaneBody=0;strokeColor=inherit;top=0;left=0;bottom=0;right=0;collapsible=0;dropTarget=0;fillColor=none;points=[[0,0.5],[1,0.5]];portConstraint=eastwest;" parent="ZFUEVoaZ32UGvPsVa2lw-0" vertex="1">
          <mxGeometry y="160" width="500" height="40" as="geometry" />
        </mxCell>
        <mxCell id="ZFUEVoaZ32UGvPsVa2lw-38" value="HURT" style="shape=partialRectangle;html=1;whiteSpace=wrap;connectable=0;strokeColor=inherit;overflow=hidden;fillColor=none;top=0;left=0;bottom=0;right=0;pointerEvents=1;" parent="ZFUEVoaZ32UGvPsVa2lw-37" vertex="1">
          <mxGeometry width="83" height="40" as="geometry">
            <mxRectangle width="83" height="40" as="alternateBounds" />
          </mxGeometry>
        </mxCell>
        <mxCell id="ZFUEVoaZ32UGvPsVa2lw-39" value="X" style="shape=partialRectangle;html=1;whiteSpace=wrap;connectable=0;strokeColor=inherit;overflow=hidden;fillColor=none;top=0;left=0;bottom=0;right=0;pointerEvents=1;" parent="ZFUEVoaZ32UGvPsVa2lw-37" vertex="1">
          <mxGeometry x="83" width="87" height="40" as="geometry">
            <mxRectangle width="87" height="40" as="alternateBounds" />
          </mxGeometry>
        </mxCell>
        <mxCell id="ZFUEVoaZ32UGvPsVa2lw-40" value="X" style="shape=partialRectangle;html=1;whiteSpace=wrap;connectable=0;strokeColor=inherit;overflow=hidden;fillColor=none;top=0;left=0;bottom=0;right=0;pointerEvents=1;" parent="ZFUEVoaZ32UGvPsVa2lw-37" vertex="1">
          <mxGeometry x="170" width="80" height="40" as="geometry">
            <mxRectangle width="80" height="40" as="alternateBounds" />
          </mxGeometry>
        </mxCell>
        <mxCell id="ZFUEVoaZ32UGvPsVa2lw-41" value="X" style="shape=partialRectangle;html=1;whiteSpace=wrap;connectable=0;strokeColor=inherit;overflow=hidden;fillColor=none;top=0;left=0;bottom=0;right=0;pointerEvents=1;" parent="ZFUEVoaZ32UGvPsVa2lw-37" vertex="1">
          <mxGeometry x="250" width="83" height="40" as="geometry">
            <mxRectangle width="83" height="40" as="alternateBounds" />
          </mxGeometry>
        </mxCell>
        <mxCell id="ZFUEVoaZ32UGvPsVa2lw-42" value="X" style="shape=partialRectangle;html=1;whiteSpace=wrap;connectable=0;strokeColor=inherit;overflow=hidden;fillColor=none;top=0;left=0;bottom=0;right=0;pointerEvents=1;" parent="ZFUEVoaZ32UGvPsVa2lw-37" vertex="1">
          <mxGeometry x="333" width="84" height="40" as="geometry">
            <mxRectangle width="84" height="40" as="alternateBounds" />
          </mxGeometry>
        </mxCell>
        <mxCell id="ZFUEVoaZ32UGvPsVa2lw-43" value="" style="shape=partialRectangle;html=1;whiteSpace=wrap;connectable=0;strokeColor=inherit;overflow=hidden;fillColor=none;top=0;left=0;bottom=0;right=0;pointerEvents=1;" parent="ZFUEVoaZ32UGvPsVa2lw-37" vertex="1">
          <mxGeometry x="417" width="83" height="40" as="geometry">
            <mxRectangle width="83" height="40" as="alternateBounds" />
          </mxGeometry>
        </mxCell>
        <mxCell id="ZFUEVoaZ32UGvPsVa2lw-44" value="" style="shape=tableRow;horizontal=0;startSize=0;swimlaneHead=0;swimlaneBody=0;strokeColor=inherit;top=0;left=0;bottom=0;right=0;collapsible=0;dropTarget=0;fillColor=none;points=[[0,0.5],[1,0.5]];portConstraint=eastwest;" parent="ZFUEVoaZ32UGvPsVa2lw-0" vertex="1">
          <mxGeometry y="200" width="500" height="40" as="geometry" />
        </mxCell>
        <mxCell id="ZFUEVoaZ32UGvPsVa2lw-45" value="DEAD" style="shape=partialRectangle;html=1;whiteSpace=wrap;connectable=0;strokeColor=inherit;overflow=hidden;fillColor=none;top=0;left=0;bottom=0;right=0;pointerEvents=1;" parent="ZFUEVoaZ32UGvPsVa2lw-44" vertex="1">
          <mxGeometry width="83" height="40" as="geometry">
            <mxRectangle width="83" height="40" as="alternateBounds" />
          </mxGeometry>
        </mxCell>
        <mxCell id="ZFUEVoaZ32UGvPsVa2lw-46" value="X" style="shape=partialRectangle;html=1;whiteSpace=wrap;connectable=0;strokeColor=inherit;overflow=hidden;fillColor=none;top=0;left=0;bottom=0;right=0;pointerEvents=1;" parent="ZFUEVoaZ32UGvPsVa2lw-44" vertex="1">
          <mxGeometry x="83" width="87" height="40" as="geometry">
            <mxRectangle width="87" height="40" as="alternateBounds" />
          </mxGeometry>
        </mxCell>
        <mxCell id="ZFUEVoaZ32UGvPsVa2lw-47" value="X" style="shape=partialRectangle;html=1;whiteSpace=wrap;connectable=0;strokeColor=inherit;overflow=hidden;fillColor=none;top=0;left=0;bottom=0;right=0;pointerEvents=1;" parent="ZFUEVoaZ32UGvPsVa2lw-44" vertex="1">
          <mxGeometry x="170" width="80" height="40" as="geometry">
            <mxRectangle width="80" height="40" as="alternateBounds" />
          </mxGeometry>
        </mxCell>
        <mxCell id="ZFUEVoaZ32UGvPsVa2lw-48" value="X" style="shape=partialRectangle;html=1;whiteSpace=wrap;connectable=0;strokeColor=inherit;overflow=hidden;fillColor=none;top=0;left=0;bottom=0;right=0;pointerEvents=1;" parent="ZFUEVoaZ32UGvPsVa2lw-44" vertex="1">
          <mxGeometry x="250" width="83" height="40" as="geometry">
            <mxRectangle width="83" height="40" as="alternateBounds" />
          </mxGeometry>
        </mxCell>
        <mxCell id="ZFUEVoaZ32UGvPsVa2lw-49" value="X" style="shape=partialRectangle;html=1;whiteSpace=wrap;connectable=0;strokeColor=inherit;overflow=hidden;fillColor=none;top=0;left=0;bottom=0;right=0;pointerEvents=1;" parent="ZFUEVoaZ32UGvPsVa2lw-44" vertex="1">
          <mxGeometry x="333" width="84" height="40" as="geometry">
            <mxRectangle width="84" height="40" as="alternateBounds" />
          </mxGeometry>
        </mxCell>
        <mxCell id="ZFUEVoaZ32UGvPsVa2lw-50" value="" style="shape=partialRectangle;html=1;whiteSpace=wrap;connectable=0;strokeColor=inherit;overflow=hidden;fillColor=none;top=0;left=0;bottom=0;right=0;pointerEvents=1;" parent="ZFUEVoaZ32UGvPsVa2lw-44" vertex="1">
          <mxGeometry x="417" width="83" height="40" as="geometry">
            <mxRectangle width="83" height="40" as="alternateBounds" />
          </mxGeometry>
        </mxCell>
        <mxCell id="ZFUEVoaZ32UGvPsVa2lw-51" value="" style="shape=tableRow;horizontal=0;startSize=0;swimlaneHead=0;swimlaneBody=0;strokeColor=inherit;top=0;left=0;bottom=0;right=0;collapsible=0;dropTarget=0;fillColor=none;points=[[0,0.5],[1,0.5]];portConstraint=eastwest;" parent="ZFUEVoaZ32UGvPsVa2lw-0" vertex="1">
          <mxGeometry y="240" width="500" height="40" as="geometry" />
        </mxCell>
        <mxCell id="ZFUEVoaZ32UGvPsVa2lw-52" value="REMOVE" style="shape=partialRectangle;html=1;whiteSpace=wrap;connectable=0;strokeColor=inherit;overflow=hidden;fillColor=none;top=0;left=0;bottom=0;right=0;pointerEvents=1;" parent="ZFUEVoaZ32UGvPsVa2lw-51" vertex="1">
          <mxGeometry width="83" height="40" as="geometry">
            <mxRectangle width="83" height="40" as="alternateBounds" />
          </mxGeometry>
        </mxCell>
        <mxCell id="ZFUEVoaZ32UGvPsVa2lw-53" value="X" style="shape=partialRectangle;html=1;whiteSpace=wrap;connectable=0;strokeColor=inherit;overflow=hidden;fillColor=none;top=0;left=0;bottom=0;right=0;pointerEvents=1;" parent="ZFUEVoaZ32UGvPsVa2lw-51" vertex="1">
          <mxGeometry x="83" width="87" height="40" as="geometry">
            <mxRectangle width="87" height="40" as="alternateBounds" />
          </mxGeometry>
        </mxCell>
        <mxCell id="ZFUEVoaZ32UGvPsVa2lw-54" value="X" style="shape=partialRectangle;html=1;whiteSpace=wrap;connectable=0;strokeColor=inherit;overflow=hidden;fillColor=none;top=0;left=0;bottom=0;right=0;pointerEvents=1;" parent="ZFUEVoaZ32UGvPsVa2lw-51" vertex="1">
          <mxGeometry x="170" width="80" height="40" as="geometry">
            <mxRectangle width="80" height="40" as="alternateBounds" />
          </mxGeometry>
        </mxCell>
        <mxCell id="ZFUEVoaZ32UGvPsVa2lw-55" value="X" style="shape=partialRectangle;html=1;whiteSpace=wrap;connectable=0;strokeColor=inherit;overflow=hidden;fillColor=none;top=0;left=0;bottom=0;right=0;pointerEvents=1;" parent="ZFUEVoaZ32UGvPsVa2lw-51" vertex="1">
          <mxGeometry x="250" width="83" height="40" as="geometry">
            <mxRectangle width="83" height="40" as="alternateBounds" />
          </mxGeometry>
        </mxCell>
        <mxCell id="ZFUEVoaZ32UGvPsVa2lw-56" value="X" style="shape=partialRectangle;html=1;whiteSpace=wrap;connectable=0;strokeColor=inherit;overflow=hidden;fillColor=none;top=0;left=0;bottom=0;right=0;pointerEvents=1;" parent="ZFUEVoaZ32UGvPsVa2lw-51" vertex="1">
          <mxGeometry x="333" width="84" height="40" as="geometry">
            <mxRectangle width="84" height="40" as="alternateBounds" />
          </mxGeometry>
        </mxCell>
        <mxCell id="ZFUEVoaZ32UGvPsVa2lw-57" value="" style="shape=partialRectangle;html=1;whiteSpace=wrap;connectable=0;strokeColor=inherit;overflow=hidden;fillColor=none;top=0;left=0;bottom=0;right=0;pointerEvents=1;" parent="ZFUEVoaZ32UGvPsVa2lw-51" vertex="1">
          <mxGeometry x="417" width="83" height="40" as="geometry">
            <mxRectangle width="83" height="40" as="alternateBounds" />
          </mxGeometry>
        </mxCell>
        <mxCell id="ZFUEVoaZ32UGvPsVa2lw-72" value="Priority" style="endArrow=classic;html=1;rounded=0;" parent="WIyWlLk6GJQsqaUBKTNV-1" edge="1">
          <mxGeometry width="50" height="50" relative="1" as="geometry">
            <mxPoint x="510" y="1490" as="sourcePoint" />
            <mxPoint x="510" y="1270" as="targetPoint" />
          </mxGeometry>
        </mxCell>
        <mxCell id="ZFUEVoaZ32UGvPsVa2lw-79" style="edgeStyle=orthogonalEdgeStyle;rounded=0;orthogonalLoop=1;jettySize=auto;html=1;exitX=0;exitY=0.25;exitDx=0;exitDy=0;entryX=0.25;entryY=0;entryDx=0;entryDy=0;" parent="WIyWlLk6GJQsqaUBKTNV-1" source="ZFUEVoaZ32UGvPsVa2lw-73" target="ZFUEVoaZ32UGvPsVa2lw-74" edge="1">
          <mxGeometry relative="1" as="geometry" />
        </mxCell>
        <mxCell id="ZFUEVoaZ32UGvPsVa2lw-83" value="moveEvent" style="edgeLabel;html=1;align=center;verticalAlign=middle;resizable=0;points=[];" parent="ZFUEVoaZ32UGvPsVa2lw-79" vertex="1" connectable="0">
          <mxGeometry x="0.1397" y="-1" relative="1" as="geometry">
            <mxPoint as="offset" />
          </mxGeometry>
        </mxCell>
        <mxCell id="ZFUEVoaZ32UGvPsVa2lw-89" value="collision" style="edgeStyle=orthogonalEdgeStyle;rounded=0;orthogonalLoop=1;jettySize=auto;html=1;exitX=1;exitY=0.75;exitDx=0;exitDy=0;entryX=0.25;entryY=0;entryDx=0;entryDy=0;" parent="WIyWlLk6GJQsqaUBKTNV-1" source="ZFUEVoaZ32UGvPsVa2lw-73" target="ZFUEVoaZ32UGvPsVa2lw-76" edge="1">
          <mxGeometry relative="1" as="geometry" />
        </mxCell>
        <mxCell id="ZFUEVoaZ32UGvPsVa2lw-97" value="attackEvent" style="edgeStyle=orthogonalEdgeStyle;rounded=0;orthogonalLoop=1;jettySize=auto;html=1;exitX=0.75;exitY=1;exitDx=0;exitDy=0;entryX=0.75;entryY=0;entryDx=0;entryDy=0;" parent="WIyWlLk6GJQsqaUBKTNV-1" source="ZFUEVoaZ32UGvPsVa2lw-73" target="ZFUEVoaZ32UGvPsVa2lw-75" edge="1">
          <mxGeometry x="0.4545" relative="1" as="geometry">
            <mxPoint as="offset" />
          </mxGeometry>
        </mxCell>
        <mxCell id="ZFUEVoaZ32UGvPsVa2lw-73" value="IDLE" style="rounded=1;whiteSpace=wrap;html=1;" parent="WIyWlLk6GJQsqaUBKTNV-1" vertex="1">
          <mxGeometry x="414" y="1660" width="120" height="60" as="geometry" />
        </mxCell>
        <mxCell id="ZFUEVoaZ32UGvPsVa2lw-82" value="attackEvent" style="edgeStyle=orthogonalEdgeStyle;rounded=0;orthogonalLoop=1;jettySize=auto;html=1;exitX=0.5;exitY=1;exitDx=0;exitDy=0;entryX=0;entryY=0.5;entryDx=0;entryDy=0;" parent="WIyWlLk6GJQsqaUBKTNV-1" source="ZFUEVoaZ32UGvPsVa2lw-74" target="ZFUEVoaZ32UGvPsVa2lw-75" edge="1">
          <mxGeometry relative="1" as="geometry" />
        </mxCell>
        <mxCell id="ZFUEVoaZ32UGvPsVa2lw-91" value="collision" style="edgeStyle=orthogonalEdgeStyle;rounded=0;orthogonalLoop=1;jettySize=auto;html=1;exitX=1;exitY=0.5;exitDx=0;exitDy=0;entryX=0;entryY=0.5;entryDx=0;entryDy=0;" parent="WIyWlLk6GJQsqaUBKTNV-1" source="ZFUEVoaZ32UGvPsVa2lw-74" target="ZFUEVoaZ32UGvPsVa2lw-76" edge="1">
          <mxGeometry x="-0.6602" relative="1" as="geometry">
            <Array as="points">
              <mxPoint x="510" y="1830" />
              <mxPoint x="510" y="1830" />
            </Array>
            <mxPoint as="offset" />
          </mxGeometry>
        </mxCell>
        <mxCell id="ZFUEVoaZ32UGvPsVa2lw-93" value="idleEvent" style="edgeStyle=orthogonalEdgeStyle;rounded=0;orthogonalLoop=1;jettySize=auto;html=1;exitX=0.75;exitY=0;exitDx=0;exitDy=0;entryX=0;entryY=0.75;entryDx=0;entryDy=0;" parent="WIyWlLk6GJQsqaUBKTNV-1" source="ZFUEVoaZ32UGvPsVa2lw-74" target="ZFUEVoaZ32UGvPsVa2lw-73" edge="1">
          <mxGeometry relative="1" as="geometry" />
        </mxCell>
        <mxCell id="ZFUEVoaZ32UGvPsVa2lw-74" value="MOVE" style="rounded=1;whiteSpace=wrap;html=1;" parent="WIyWlLk6GJQsqaUBKTNV-1" vertex="1">
          <mxGeometry x="255" y="1800" width="120" height="60" as="geometry" />
        </mxCell>
        <mxCell id="ZFUEVoaZ32UGvPsVa2lw-92" value="collision" style="edgeStyle=orthogonalEdgeStyle;rounded=0;orthogonalLoop=1;jettySize=auto;html=1;exitX=1;exitY=0.5;exitDx=0;exitDy=0;entryX=0.25;entryY=1;entryDx=0;entryDy=0;" parent="WIyWlLk6GJQsqaUBKTNV-1" source="ZFUEVoaZ32UGvPsVa2lw-75" target="ZFUEVoaZ32UGvPsVa2lw-76" edge="1">
          <mxGeometry relative="1" as="geometry" />
        </mxCell>
        <mxCell id="ZFUEVoaZ32UGvPsVa2lw-94" value="attackTimerDone" style="edgeStyle=orthogonalEdgeStyle;rounded=0;orthogonalLoop=1;jettySize=auto;html=1;exitX=0.25;exitY=0;exitDx=0;exitDy=0;entryX=0.25;entryY=1;entryDx=0;entryDy=0;" parent="WIyWlLk6GJQsqaUBKTNV-1" source="ZFUEVoaZ32UGvPsVa2lw-75" target="ZFUEVoaZ32UGvPsVa2lw-73" edge="1">
          <mxGeometry x="0.4545" y="-6" relative="1" as="geometry">
            <mxPoint as="offset" />
          </mxGeometry>
        </mxCell>
        <mxCell id="ZFUEVoaZ32UGvPsVa2lw-75" value="ATTACK" style="rounded=1;whiteSpace=wrap;html=1;" parent="WIyWlLk6GJQsqaUBKTNV-1" vertex="1">
          <mxGeometry x="414" y="1940" width="120" height="60" as="geometry" />
        </mxCell>
        <mxCell id="ZFUEVoaZ32UGvPsVa2lw-90" value="HurtTimerDone" style="edgeStyle=orthogonalEdgeStyle;rounded=0;orthogonalLoop=1;jettySize=auto;html=1;exitX=0.75;exitY=0;exitDx=0;exitDy=0;entryX=1;entryY=0.25;entryDx=0;entryDy=0;" parent="WIyWlLk6GJQsqaUBKTNV-1" source="ZFUEVoaZ32UGvPsVa2lw-76" target="ZFUEVoaZ32UGvPsVa2lw-73" edge="1">
          <mxGeometry relative="1" as="geometry" />
        </mxCell>
        <mxCell id="ZFUEVoaZ32UGvPsVa2lw-95" value="isDead" style="edgeStyle=orthogonalEdgeStyle;rounded=0;orthogonalLoop=1;jettySize=auto;html=1;exitX=1;exitY=0.5;exitDx=0;exitDy=0;entryX=0;entryY=0.5;entryDx=0;entryDy=0;" parent="WIyWlLk6GJQsqaUBKTNV-1" source="ZFUEVoaZ32UGvPsVa2lw-76" target="ZFUEVoaZ32UGvPsVa2lw-77" edge="1">
          <mxGeometry relative="1" as="geometry" />
        </mxCell>
        <mxCell id="ZFUEVoaZ32UGvPsVa2lw-76" value="HURT" style="rounded=1;whiteSpace=wrap;html=1;" parent="WIyWlLk6GJQsqaUBKTNV-1" vertex="1">
          <mxGeometry x="581" y="1800" width="120" height="60" as="geometry" />
        </mxCell>
        <mxCell id="ZFUEVoaZ32UGvPsVa2lw-96" value="deadTimerDone" style="edgeStyle=orthogonalEdgeStyle;rounded=0;orthogonalLoop=1;jettySize=auto;html=1;exitX=1;exitY=0.5;exitDx=0;exitDy=0;entryX=0;entryY=0.5;entryDx=0;entryDy=0;" parent="WIyWlLk6GJQsqaUBKTNV-1" source="ZFUEVoaZ32UGvPsVa2lw-77" target="ZFUEVoaZ32UGvPsVa2lw-78" edge="1">
          <mxGeometry relative="1" as="geometry" />
        </mxCell>
        <mxCell id="ZFUEVoaZ32UGvPsVa2lw-77" value="DEAD" style="rounded=1;whiteSpace=wrap;html=1;" parent="WIyWlLk6GJQsqaUBKTNV-1" vertex="1">
          <mxGeometry x="780" y="1800" width="120" height="60" as="geometry" />
        </mxCell>
        <mxCell id="ZFUEVoaZ32UGvPsVa2lw-78" value="REMOVE" style="rounded=1;whiteSpace=wrap;html=1;" parent="WIyWlLk6GJQsqaUBKTNV-1" vertex="1">
          <mxGeometry x="1020" y="1800" width="120" height="60" as="geometry" />
        </mxCell>
        <mxCell id="7m6XIUOffLkH2ZnsS2VB-0" value="Collectable Object extends animatedObject&lt;br&gt;type: Coin + Poison&lt;br&gt;IMGs&lt;br&gt;&lt;br&gt;&lt;br&gt;Jellyfish:&lt;br&gt;Wenn Character detcted -&amp;gt; Wände keine Barriere mehr sonst sind Wände eine Barrier -&amp;gt; nicht umsetzten&lt;br&gt;Move: Auf und Ab mit einer X-Richtung und bei Barrier umdrehen&lt;br&gt;type = normal&amp;nbsp;&lt;br&gt;-&amp;gt; attack: Richtung detektiertem Objekt bewegen&lt;br&gt;-&amp;gt; V &amp;lt; V Character --&amp;gt; Man kann entkommen&lt;br&gt;-&amp;gt; hit: durch Bubble oder Slap&lt;br&gt;-&amp;gt; defence: keine&lt;br&gt;-&amp;gt; dead: drop coin&lt;br&gt;type = super&amp;nbsp;&lt;br&gt;-&amp;gt; attack: Auf Abstand zu Character bleiben und Poison Bubbles schießen&lt;br&gt;-&amp;gt; Move: um Charakter kreisen&lt;br&gt;-&amp;gt; V&amp;gt;VCharacter --&amp;gt; Man kann nicht entkommen&lt;br&gt;-&amp;gt; durch Bubble oder Slap&lt;br&gt;-&amp;gt; defence: imune against poison bubble&lt;br&gt;-&amp;gt; dead: drop Poison&lt;br&gt;&amp;nbsp;&lt;br&gt;&lt;br&gt;&lt;br&gt;Endboss Whale:&lt;br&gt;Attack:&amp;nbsp;&lt;br&gt;-&amp;gt; Smash: In richtung dedektierten Objekt bewegen (Initialer Objekt Punkt als Ziel), V steigern&lt;br&gt;Ablauf Attacke: Angry -&amp;gt; fast Move(Attack) --&amp;gt; stand --&amp;gt; move according Move&amp;nbsp;&lt;br&gt;-&amp;gt; Bit: short range Attack (Character in bit range) -&amp;gt; nicht umgesetzt&lt;br&gt;Ablauf Attacke:&amp;nbsp; bit --&amp;gt; move accoring Move&lt;br&gt;Move:&amp;nbsp;&lt;br&gt;-&amp;gt; Character nicht dedektiert: nach oben und unten mit Seitenwechsel&lt;br&gt;-&amp;gt; Character detektiert: langsame Verfolgung bis Attack wieder ready&lt;br&gt;hit:&lt;br&gt;-&amp;gt; durch Slap&lt;br&gt;-&amp;gt; durch Bubble Poison von weiter weg&lt;br&gt;-&amp;gt; durch Bubble Normal&amp;nbsp;&lt;br&gt;defence:&lt;br&gt;-&amp;gt; Ausweichen der Bubbles (normal Bubble muss innerhalb von short Attack range geschossenw erden um zu treffen, Poison Bubble kann auch von weiter weg treffen)&lt;br&gt;&lt;br&gt;&lt;br&gt;&lt;br&gt;&lt;br&gt;Endboss Jellyfish:&lt;br&gt;health &amp;gt;= 50% -&amp;gt; type = normal,&lt;br&gt;Attack:&lt;br&gt;-&amp;gt; Smash: In richtung dedektierten Objekt bewegen (Initialer Objekt Punkt als Ziel), V steigern&lt;br&gt;Ablauf Attacke: Angry(color change) -&amp;gt; fast Move(Attack) --&amp;gt; stand --&amp;gt; move accoring Move&amp;nbsp;&lt;br&gt;Move:&amp;nbsp;&lt;br&gt;-&amp;gt; Character nicht dedektiert: nach oben und unten mit Seitenwechsel&lt;br&gt;-&amp;gt; Character detektiert: langsame Verfolgung bis Attack wieder ready&lt;br&gt;hit:&lt;br&gt;-&amp;gt; durch Slap&lt;br&gt;-&amp;gt; durch Bubble Poison von weiter weg&lt;br&gt;-&amp;gt; durch Bubble Normal&amp;nbsp;&lt;br&gt;defence:&lt;br&gt;-&amp;gt; Ausweichen der Bubbles (normal Bubble muss innerhalb von short Attack range geschossenw erden um zu treffen, Poison Bubble kann auch von weiter weg treffen)&lt;br&gt;&lt;br&gt;&lt;br&gt;health &amp;lt;= 50% -&amp;gt; type = super,&lt;br&gt;additional to normal type:&lt;br&gt;Attack:&lt;br&gt;-&amp;gt; Character nicht dedektiert: Poision bubble circuit around Endbos&lt;br&gt;-&amp;gt; Character detektiert: Shot: Kreisen um Charakter und Poison Bubbles schießen&lt;br&gt;hit:&lt;br&gt;-&amp;gt; durch Slap&lt;br&gt;-&amp;gt; durch Bubble Normal&amp;nbsp;&lt;br&gt;defence:&lt;br&gt;-&amp;gt; Ausweichen der Bubbles (normal Bubble muss innerhalb von short Attack range geschossenw erden um zu treffen, Poison Bubble kann auch von weiter weg treffen)&lt;br&gt;-&amp;gt; Imune against poison bubble&lt;br&gt;&lt;br&gt;&lt;br&gt;Endbosskampf 1:&lt;br&gt;Whale + Jellyfish super to get Poison&lt;br&gt;&lt;br&gt;&lt;br&gt;Endbosskampf 2:&lt;br&gt;Endbos Jellyfish + ?Puffefishes?" style="text;whiteSpace=wrap;html=1;" vertex="1" parent="WIyWlLk6GJQsqaUBKTNV-1">
          <mxGeometry x="1290" y="-874" width="650" height="1190" as="geometry" />
        </mxCell>
        <mxCell id="7m6XIUOffLkH2ZnsS2VB-1" value="Balancing Table&#xa;&#xa;&#xa;Property	Sharky	Pufferfish	Jellyfish(normal)	Jellyfish(super)	Whale	EB Whale	EB Jellyfish	Bubble(normal)	Bubble(Poison)	&#xa;Health	100	20	30	30	40	200	250	-	-	&#xa;Damage	30	15	10	10	20	30	30	20	30	&#xa;						Bit: 1.2	Smash: 1.3&#xa;						Smash: 1.3&#xa;AttackRate[s]	0.25	-	-	2	3	Smash 3	Smash 3	-	-	&#xa;						Bit 1	Shot 2 detect&#xa;							Shot 4 no det.&#xa;HurtRate[s]	0.5	0.5	0.5	0.5	0.5	0.5	0.5	-	-	&#xa;Speed	1	0.7	0.7	0.7	0.6	0.8	0.8	1.2	1.5	&#xa;			Detected &lt;0.9	Detected &lt;1.1	Detect &lt;1.2	Smash &lt;1.5	smash &lt;1.5&#xa;							Shot &lt;1&#xa;DeadTransission[s]	1	0.5	0.5	0.5	0.5	1	1	-	-" style="text;whiteSpace=wrap;html=1;" vertex="1" parent="WIyWlLk6GJQsqaUBKTNV-1">
          <mxGeometry x="2000" y="-780" width="560" height="270" as="geometry" />
        </mxCell>
      </root>
    </mxGraphModel>
  </diagram>
</mxfile>
